<svg width="375" height="94" viewBox="0 0 375 94" fill="none" xmlns="http://www.w3.org/2000/svg">
<mask id="path-1-inside-1_736_1367" fill="white">
<path d="M45.2383 66.2383C41.5322 69.9444 36.8104 72.4683 31.6699 73.4908C26.5294 74.5133 21.2011 73.9885 16.3589 71.9828C11.5166 69.9771 7.37791 66.5805 4.46606 62.2226C1.5542 57.8647 3.228e-07 52.7412 0 47.5C-3.228e-07 42.2588 1.5542 37.1353 4.46605 32.7774C7.37791 28.4195 11.5166 25.0229 16.3589 23.0172C21.2011 21.0115 26.5294 20.4867 31.6699 21.5092C36.8104 22.5317 41.5322 25.0556 45.2383 28.7617L36.8189 37.1811C34.778 35.1402 32.1778 33.7503 29.347 33.1873C26.5162 32.6242 23.582 32.9132 20.9154 34.0177C18.2489 35.1222 15.9698 36.9927 14.3662 39.3925C12.7627 41.7923 11.9069 44.6137 11.9069 47.5C11.9069 50.3863 12.7627 53.2077 14.3662 55.6075C15.9698 58.0074 18.2489 59.8778 20.9154 60.9823C23.582 62.0868 26.5162 62.3758 29.347 61.8127C32.1778 61.2497 34.778 59.8598 36.8189 57.8189L45.2383 66.2383Z"/>
</mask>
<path d="M45.2383 66.2383C41.5322 69.9444 36.8104 72.4683 31.6699 73.4908C26.5294 74.5133 21.2011 73.9885 16.3589 71.9828C11.5166 69.9771 7.37791 66.5805 4.46606 62.2226C1.5542 57.8647 3.228e-07 52.7412 0 47.5C-3.228e-07 42.2588 1.5542 37.1353 4.46605 32.7774C7.37791 28.4195 11.5166 25.0229 16.3589 23.0172C21.2011 21.0115 26.5294 20.4867 31.6699 21.5092C36.8104 22.5317 41.5322 25.0556 45.2383 28.7617L36.8189 37.1811C34.778 35.1402 32.1778 33.7503 29.347 33.1873C26.5162 32.6242 23.582 32.9132 20.9154 34.0177C18.2489 35.1222 15.9698 36.9927 14.3662 39.3925C12.7627 41.7923 11.9069 44.6137 11.9069 47.5C11.9069 50.3863 12.7627 53.2077 14.3662 55.6075C15.9698 58.0074 18.2489 59.8778 20.9154 60.9823C23.582 62.0868 26.5162 62.3758 29.347 61.8127C32.1778 61.2497 34.778 59.8598 36.8189 57.8189L45.2383 66.2383Z" stroke="#131313" stroke-width="40" mask="url(#path-1-inside-1_736_1367)"/>
<mask id="path-2-inside-2_736_1367" fill="white">
<path d="M26.316 60.999C24.5433 60.9748 22.7927 60.6018 21.1642 59.9011C19.5358 59.2004 18.0612 58.1858 16.8248 56.9152C15.5884 55.6446 14.6144 54.143 13.9584 52.496C13.3023 50.849 12.9771 49.0889 13.0013 47.3162L18.5761 47.3922C18.562 48.4328 18.7529 49.466 19.138 50.4328C19.5231 51.3996 20.0948 52.2811 20.8206 53.0269C21.5464 53.7727 22.4119 54.3683 23.3679 54.7796C24.3238 55.1909 25.3514 55.4099 26.392 55.4241L26.316 60.999Z"/>
</mask>
<path d="M26.316 60.999C24.5433 60.9748 22.7927 60.6018 21.1642 59.9011C19.5358 59.2004 18.0612 58.1858 16.8248 56.9152C15.5884 55.6446 14.6144 54.143 13.9584 52.496C13.3023 50.849 12.9771 49.0889 13.0013 47.3162L18.5761 47.3922C18.562 48.4328 18.7529 49.466 19.138 50.4328C19.5231 51.3996 20.0948 52.2811 20.8206 53.0269C21.5464 53.7727 22.4119 54.3683 23.3679 54.7796C24.3238 55.1909 25.3514 55.4099 26.392 55.4241L26.316 60.999Z" stroke="#EFEFEF" stroke-width="32" mask="url(#path-2-inside-2_736_1367)"/>
<path d="M21.8175 52.7742L31.4203 49.4298L35.0252 39.9217L25.4225 43.2662L21.8175 52.7742Z" fill="url(#paint0_linear_736_1367)"/>
<path d="M71.9241 21.182C75.7404 21.182 79.222 21.8516 82.3689 23.1906C85.5826 24.4628 88.3278 26.2705 90.6042 28.6139C92.9476 30.8903 94.7553 33.6354 96.0274 36.8492C97.3665 40.063 98.0361 43.5781 98.0361 47.3945C98.0361 51.2108 97.3665 54.7259 96.0274 57.9397C94.7553 61.1535 92.9476 63.9321 90.6042 66.2754C88.3278 68.5519 85.5826 70.3596 82.3689 71.6987C79.222 72.9708 75.7404 73.6069 71.9241 73.6069C68.1077 73.6069 64.5926 72.9708 61.3788 71.6987C58.232 70.3596 55.4869 68.5519 53.1435 66.2754C50.8671 63.9321 49.0593 61.1535 47.7202 57.9397C46.4481 54.7259 45.8121 51.2108 45.8121 47.3945C45.8121 43.5781 46.4481 40.063 47.7202 36.8492C49.0593 33.6354 50.8671 30.8903 53.1435 28.6139C55.4869 26.2705 58.232 24.4628 61.3788 23.1906C64.5926 21.8516 68.1077 21.182 71.9241 21.182ZM71.9241 61.4548C73.5979 61.4548 75.2048 61.1535 76.7447 60.5509C78.3516 59.8814 79.7577 58.944 80.9628 57.7388C82.168 56.5337 83.1054 55.0607 83.7749 53.3199C84.5114 51.5791 84.8796 49.6039 84.8796 47.3945C84.8796 45.185 84.5114 43.2098 83.7749 41.469C83.1054 39.7282 82.168 38.2553 80.9628 37.0501C79.7577 35.8449 78.3516 34.941 76.7447 34.3385C75.2048 33.6689 73.5979 33.3342 71.9241 33.3342C70.1833 33.3342 68.5429 33.6689 67.003 34.3385C65.463 34.941 64.0905 35.8449 62.8853 37.0501C61.6801 38.2553 60.7093 39.7282 59.9728 41.469C59.3033 43.2098 58.9685 45.185 58.9685 47.3945C58.9685 49.6039 59.3033 51.5791 59.9728 53.3199C60.7093 55.0607 61.6801 56.5337 62.8853 57.7388C64.0905 58.944 65.463 59.8814 67.003 60.5509C68.5429 61.1535 70.1833 61.4548 71.9241 61.4548ZM100.487 22.7889H112.84V29.2165H113.644C115.184 26.8062 117.259 24.8645 119.87 23.3915C122.548 21.9185 125.494 21.182 128.708 21.182C132.458 21.182 135.604 22.0524 138.149 23.7932C140.693 25.534 142.501 27.6766 143.572 30.2208C145.112 27.7435 147.288 25.6345 150.1 23.8937C152.912 22.0859 156.327 21.182 160.344 21.182C163.357 21.182 165.968 21.6842 168.178 22.6885C170.387 23.6258 172.195 24.9649 173.601 26.7057C175.074 28.4465 176.179 30.5556 176.915 33.0329C177.652 35.4432 178.02 38.0879 178.02 40.9669V72H164.863V43.3772C164.863 36.6818 162.118 33.3342 156.628 33.3342C154.887 33.3342 153.347 33.7359 152.008 34.5393C150.669 35.2758 149.531 36.3136 148.594 37.6527C147.723 38.9248 147.02 40.4647 146.484 42.2725C146.016 44.0802 145.781 46.0219 145.781 48.0975V72H132.625V43.3772C132.625 36.6818 129.746 33.3342 123.988 33.3342C122.314 33.3342 120.841 33.7359 119.569 34.5393C118.297 35.2758 117.226 36.3136 116.355 37.6527C115.485 38.9248 114.815 40.4647 114.347 42.2725C113.878 44.0802 113.644 46.0219 113.644 48.0975V72H100.487V22.7889Z" fill="#131313"/>
<path d="M183.431 22.7889H195.784V28.7143H196.588C197.793 26.6388 199.668 24.8645 202.212 23.3915C204.756 21.9185 207.903 21.182 211.652 21.182C214.799 21.182 217.779 21.8516 220.591 23.1906C223.47 24.4628 225.98 26.2705 228.123 28.6139C230.332 30.8903 232.073 33.6354 233.345 36.8492C234.617 40.063 235.254 43.5781 235.254 47.3945C235.254 51.2108 234.617 54.7259 233.345 57.9397C232.073 61.1535 230.332 63.9321 228.123 66.2754C225.98 68.5519 223.47 70.3596 220.591 71.6987C217.779 72.9708 214.799 73.6069 211.652 73.6069C207.903 73.6069 204.756 72.8704 202.212 71.3974C199.668 69.9244 197.793 68.1502 196.588 66.0746H195.784L196.588 73.1047V93.693H183.431V22.7889ZM208.941 61.4548C210.681 61.4548 212.322 61.12 213.862 60.4505C215.469 59.7809 216.875 58.8436 218.08 57.6384C219.285 56.4332 220.256 54.9602 220.992 53.2194C221.729 51.4786 222.097 49.537 222.097 47.3945C222.097 45.2519 221.729 43.3103 220.992 41.5695C220.256 39.8287 219.285 38.3557 218.08 37.1505C216.875 35.9454 215.469 35.008 213.862 34.3385C212.322 33.6689 210.681 33.3342 208.941 33.3342C207.2 33.3342 205.526 33.6689 203.919 34.3385C202.379 34.941 201.007 35.8449 199.801 37.0501C198.596 38.2553 197.625 39.7282 196.889 41.469C196.152 43.2098 195.784 45.185 195.784 47.3945C195.784 49.6039 196.152 51.5791 196.889 53.3199C197.625 55.0607 198.596 56.5337 199.801 57.7388C201.007 58.944 202.379 59.8814 203.919 60.5509C205.526 61.1535 207.2 61.4548 208.941 61.4548ZM268.968 66.7776H268.165C266.625 68.6523 264.75 70.2592 262.541 71.5983C260.398 72.9374 257.62 73.6069 254.205 73.6069C251.661 73.6069 249.251 73.1717 246.974 72.3013C244.765 71.4978 242.823 70.3596 241.149 68.8866C239.475 67.4137 238.17 65.6394 237.232 63.5638C236.295 61.4882 235.826 59.2118 235.826 56.7345C235.826 54.1903 236.328 51.9138 237.333 49.9052C238.337 47.8297 239.743 46.0554 241.551 44.5824C243.359 43.1094 245.468 42.0047 247.878 41.2682C250.355 40.4647 253.033 40.063 255.912 40.063C259.126 40.063 261.771 40.3308 263.846 40.8665C265.922 41.3351 267.629 41.8373 268.968 42.3729V40.8665C268.968 38.2553 267.931 36.1127 265.855 34.4389C263.78 32.6981 261.202 31.8277 258.122 31.8277C253.569 31.8277 249.719 33.7359 246.572 37.5522L237.031 31.0242C242.254 24.4628 249.384 21.182 258.423 21.182C266.056 21.182 271.881 22.9898 275.898 26.6053C279.915 30.1538 281.924 35.4432 281.924 42.4734V72H268.968V66.7776ZM268.968 52.0143C267.428 51.2778 265.822 50.7087 264.148 50.307C262.541 49.8383 260.767 49.6039 258.825 49.6039C255.678 49.6039 253.234 50.307 251.493 51.713C249.82 53.0521 248.983 54.7259 248.983 56.7345C248.983 58.7431 249.786 60.35 251.393 61.5552C253.067 62.7604 254.975 63.363 257.118 63.363C258.858 63.363 260.465 63.0617 261.938 62.4591C263.411 61.7895 264.65 60.9526 265.654 59.9483C266.725 58.877 267.529 57.6719 268.065 56.3328C268.667 54.9268 268.968 53.4873 268.968 52.0143ZM291.805 34.0372H283.168V22.7889H291.805V7.72431H304.962V22.7889H317.014V34.0372H304.962V53.119C304.962 54.2572 305.062 55.3285 305.263 56.3328C305.531 57.2702 306 58.0736 306.669 58.7431C307.607 59.8144 308.946 60.35 310.686 60.35C311.825 60.35 312.729 60.2496 313.398 60.0487C314.068 59.7809 314.704 59.4462 315.306 59.0444L319.022 70.594C317.482 71.3305 315.808 71.8661 314.001 72.2009C312.26 72.6026 310.318 72.8034 308.176 72.8034C305.698 72.8034 303.455 72.4352 301.447 71.6987C299.505 70.8953 297.865 69.824 296.526 68.4849C293.379 65.472 291.805 61.187 291.805 55.6298V34.0372ZM322.161 0.0915715H335.317V20.2782L334.514 29.2165H335.317C336.723 26.8731 338.732 24.9649 341.343 23.4919C344.021 21.952 347.001 21.182 350.281 21.182C356.642 21.182 361.329 23.0567 364.342 26.8062C367.421 30.5556 368.961 35.6775 368.961 42.1721V72H355.805V43.779C355.805 40.3643 355.002 37.7866 353.395 36.0458C351.788 34.238 349.545 33.3342 346.666 33.3342C344.858 33.3342 343.251 33.7359 341.845 34.5393C340.439 35.2758 339.234 36.3136 338.23 37.6527C337.292 38.9918 336.556 40.5652 336.02 42.3729C335.551 44.1137 335.317 45.9884 335.317 47.997V72H322.161V0.0915715Z" fill="#4EBC62"/>
<defs>
<linearGradient id="paint0_linear_736_1367" x1="21.8175" y1="52.7742" x2="35.0252" y2="39.9217" gradientUnits="userSpaceOnUse">
<stop stop-color="#4EBC62"/>
<stop offset="1" stop-color="#4EBC62"/>
</linearGradient>
</defs>
</svg>
