<svg width="23" height="20" viewBox="0 0 23 20" fill="none" xmlns="http://www.w3.org/2000/svg">
<g id="Group">
<path id="Vector" d="M19.3333 5H3.33325C2.22868 5 1.33325 5.89543 1.33325 7V17C1.33325 18.1046 2.22868 19 3.33325 19H19.3333C20.4378 19 21.3333 18.1046 21.3333 17V7C21.3333 5.89543 20.4378 5 19.3333 5Z" stroke="#4EBC62" stroke-width="2" stroke-linecap="round" stroke-linejoin="round"/>
<path id="Vector_2" d="M15.3333 19V3C15.3333 2.46957 15.1225 1.96086 14.7475 1.58579C14.3724 1.21071 13.8637 1 13.3333 1H9.33325C8.80282 1 8.29411 1.21071 7.91904 1.58579C7.54397 1.96086 7.33325 2.46957 7.33325 3V19" stroke="#4EBC62" stroke-width="2" stroke-linecap="round" stroke-linejoin="round"/>
</g>
</svg>
