<svg width="23" height="22" viewBox="0 0 23 22" fill="none" xmlns="http://www.w3.org/2000/svg">
<g id="Group">
<path id="Vector" d="M10.6665 14H12.6665C13.1969 14 13.7056 13.7893 14.0807 13.4142C14.4558 13.0391 14.6665 12.5304 14.6665 12C14.6665 11.4696 14.4558 10.9609 14.0807 10.5858C13.7056 10.2107 13.1969 10 12.6665 10H9.6665C9.0665 10 8.5665 10.2 8.2665 10.6L2.6665 16" stroke="#4EBC62" stroke-width="2" stroke-linecap="round" stroke-linejoin="round"/>
<path id="Vector_2" d="M6.6665 20.0003L8.2665 18.6003C8.5665 18.2003 9.0665 18.0003 9.6665 18.0003H13.6665C14.7665 18.0003 15.7665 17.6003 16.4665 16.8003L21.0665 12.4003C21.4524 12.0356 21.6776 11.5326 21.6926 11.0018C21.7076 10.4711 21.5112 9.95616 21.1465 9.57027C20.7818 9.18438 20.2788 8.95916 19.7481 8.94416C19.2173 8.92916 18.7024 9.1256 18.3165 9.49027L14.1165 13.3903M1.6665 15.0003L7.6665 21.0003" stroke="#4EBC62" stroke-width="2" stroke-linecap="round" stroke-linejoin="round"/>
<path id="Vector_3" d="M15.6666 10.8996C17.2682 10.8996 18.5666 9.60124 18.5666 7.99961C18.5666 6.39798 17.2682 5.09961 15.6666 5.09961C14.065 5.09961 12.7666 6.39798 12.7666 7.99961C12.7666 9.60124 14.065 10.8996 15.6666 10.8996Z" stroke="#4EBC62" stroke-width="2" stroke-linecap="round" stroke-linejoin="round"/>
<path id="Vector_4" d="M5.6665 7C7.32336 7 8.6665 5.65685 8.6665 4C8.6665 2.34315 7.32336 1 5.6665 1C4.00965 1 2.6665 2.34315 2.6665 4C2.6665 5.65685 4.00965 7 5.6665 7Z" stroke="#4EBC62" stroke-width="2" stroke-linecap="round" stroke-linejoin="round"/>
</g>
</svg>
