<svg width="456" height="332" viewBox="0 0 456 332" fill="none" xmlns="http://www.w3.org/2000/svg">
<path d="M385.944 274.047L62.9753 264.918C55.7136 264.72 48.7745 261.916 43.458 257.032C38.1416 252.149 34.8125 245.521 34.0944 238.39L18.505 86.447C18.0899 82.3799 18.5357 78.272 19.8142 74.3837C21.0926 70.4954 23.1758 66.9114 25.9317 63.8588C28.6877 60.8061 32.0563 58.3514 35.8242 56.6501C39.5921 54.9488 43.6772 54.038 47.8206 53.9754L407.31 49.074C411.585 49.017 415.822 49.8637 419.738 51.5571C423.653 53.2506 427.156 55.7516 430.01 58.8918C432.864 62.032 435.003 65.7387 436.283 69.7625C437.563 73.7862 437.955 78.0338 437.433 82.2196L416.502 248.193C415.58 255.479 411.938 262.165 406.288 266.945C400.638 271.726 393.385 274.258 385.944 274.047Z" fill="#EAF9F3"/>
<mask id="mask0_1614_9626" style="mask-type:luminance" maskUnits="userSpaceOnUse" x="18" y="49" width="420" height="226">
<path d="M385.944 274.047L62.9753 264.918C55.7136 264.72 48.7745 261.916 43.458 257.032C38.1416 252.149 34.8125 245.521 34.0944 238.39L18.505 86.447C18.0899 82.3799 18.5357 78.272 19.8142 74.3837C21.0926 70.4954 23.1758 66.9114 25.9317 63.8588C28.6877 60.8061 32.0563 58.3514 35.8242 56.6501C39.5921 54.9488 43.6772 54.038 47.8206 53.9754L407.31 49.074C411.585 49.017 415.822 49.8637 419.738 51.5571C423.653 53.2506 427.156 55.7516 430.01 58.8918C432.864 62.032 435.003 65.7387 436.283 69.7625C437.563 73.7862 437.955 78.0338 437.433 82.2196L416.502 248.193C415.58 255.479 411.938 262.165 406.288 266.945C400.638 271.726 393.385 274.258 385.944 274.047Z" fill="white"/>
</mask>
<g mask="url(#mask0_1614_9626)">
<path d="M339.424 315.28H597.488C599.959 315.28 602.329 314.311 604.076 312.588C605.823 310.864 606.805 308.527 606.805 306.089V161.744C606.805 159.306 605.823 156.969 604.076 155.245C602.329 153.522 599.959 152.554 597.488 152.554H339.424C336.953 152.554 334.583 153.522 332.836 155.245C331.089 156.969 330.107 159.306 330.107 161.744V306.089C330.107 308.527 331.089 310.864 332.836 312.588C334.583 314.311 336.953 315.28 339.424 315.28Z" stroke="#B8D8C7" stroke-width="1.8" stroke-linecap="round" stroke-linejoin="round"/>
<path d="M-1.61865 305.6H258.682C261.153 305.6 263.522 304.631 265.269 302.908C267.017 301.184 267.998 298.847 267.998 296.41V85.4664C267.998 83.0291 267.017 80.6916 265.269 78.9681C263.522 77.2446 261.153 76.2764 258.682 76.2764H-1.61865C-4.08952 76.2764 -6.45918 77.2446 -8.20634 78.9681C-9.95351 80.6916 -10.9351 83.0291 -10.9351 85.4664V296.41C-10.9351 298.847 -9.95351 301.184 -8.20634 302.908C-6.45918 304.631 -4.08952 305.6 -1.61865 305.6Z" stroke="#B8D8C7" stroke-width="1.8" stroke-linecap="round" stroke-linejoin="round"/>
<path d="M401.347 109.422H457.183V103.969H401.347C401.2 103.968 401.054 103.996 400.918 104.051C400.782 104.106 400.659 104.187 400.555 104.29C400.451 104.393 400.368 104.514 400.313 104.649C400.257 104.783 400.228 104.927 400.229 105.072V108.257C400.217 108.408 400.237 108.56 400.288 108.702C400.339 108.845 400.42 108.975 400.525 109.085C400.631 109.195 400.758 109.282 400.9 109.34C401.041 109.398 401.194 109.425 401.347 109.422Z" stroke="#B8D8C7" stroke-width="1.8" stroke-linecap="round" stroke-linejoin="round"/>
<path d="M411.471 103.968H424.079C424.736 103.97 425.37 103.734 425.863 103.305C426.355 102.876 426.67 102.284 426.75 101.64L427.743 92.8178C427.784 92.4475 427.746 92.0729 427.63 91.7183C427.515 91.3637 427.325 91.0371 427.073 90.7597C426.821 90.4823 426.513 90.2603 426.168 90.1082C425.823 89.9561 425.45 89.8773 425.073 89.877H410.477C410.1 89.8783 409.727 89.9577 409.383 90.1101C409.038 90.2625 408.731 90.4845 408.479 90.7617C408.227 91.0389 408.037 91.3652 407.921 91.7193C407.805 92.0735 407.766 92.4477 407.806 92.8178L408.8 101.64C408.87 102.287 409.183 102.885 409.677 103.316C410.171 103.747 410.811 103.98 411.471 103.968Z" stroke="#B8D8C7" stroke-width="1.8" stroke-linecap="round" stroke-linejoin="round"/>
<path d="M419.235 89.9391C419.235 89.9391 424.203 89.449 425.197 82.8321C425.197 82.8321 420.725 84.1187 419.297 87.2434C419.297 87.2434 418.676 80.2589 415.322 79.585C415.322 79.585 413.831 84.7927 416.191 87.3659C416.191 87.3659 414.39 84.4251 409.794 84.4863C410.228 85.7767 410.976 86.9426 411.972 87.8824C412.968 88.8221 414.182 89.5072 415.508 89.8779" fill="#B8D8C7"/>
<path d="M341.411 183.004H397.434C398.124 182.999 398.785 182.727 399.273 182.245C399.761 181.763 400.038 181.112 400.043 180.431V163.644C400.038 162.963 399.761 162.311 399.273 161.829C398.785 161.348 398.124 161.075 397.434 161.07H341.411C340.721 161.075 340.06 161.348 339.572 161.829C339.084 162.311 338.808 162.963 338.803 163.644V180.431C338.808 181.112 339.084 181.763 339.572 182.245C340.06 182.727 340.721 182.999 341.411 183.004Z" stroke="#B8D8C7" stroke-width="1.8" stroke-linecap="round" stroke-linejoin="round"/>
<path d="M362.964 166.951H375.882C376.127 166.945 376.361 166.846 376.534 166.675C376.708 166.504 376.808 166.274 376.814 166.032C376.808 165.791 376.708 165.56 376.534 165.389C376.361 165.218 376.127 165.119 375.882 165.113H362.964C362.718 165.119 362.485 165.218 362.312 165.389C362.138 165.56 362.038 165.791 362.032 166.032C362.029 166.154 362.052 166.274 362.098 166.387C362.144 166.5 362.212 166.602 362.299 166.688C362.386 166.774 362.49 166.841 362.604 166.886C362.718 166.932 362.841 166.954 362.964 166.951Z" fill="#B8D8C7"/>
<path d="M341.411 211.064H397.434C398.124 211.059 398.785 210.786 399.273 210.305C399.761 209.823 400.038 209.171 400.043 208.49V191.703C400.038 191.022 399.761 190.37 399.273 189.889C398.785 189.407 398.124 189.135 397.434 189.13H341.411C340.721 189.135 340.061 189.407 339.572 189.889C339.084 190.37 338.808 191.022 338.803 191.703V208.429C338.799 208.771 338.863 209.11 338.992 209.428C339.121 209.745 339.312 210.035 339.554 210.279C339.796 210.524 340.085 210.719 340.404 210.854C340.722 210.988 341.065 211.06 341.411 211.064Z" stroke="#B8D8C7" stroke-width="1.8" stroke-linecap="round" stroke-linejoin="round"/>
<path d="M362.964 195.013H375.882C376.127 195.007 376.361 194.908 376.534 194.737C376.708 194.566 376.808 194.336 376.814 194.094C376.808 193.852 376.708 193.622 376.534 193.451C376.361 193.28 376.127 193.181 375.882 193.175H362.964C362.718 193.181 362.485 193.28 362.312 193.451C362.138 193.622 362.038 193.852 362.032 194.094C362.029 194.215 362.052 194.336 362.098 194.448C362.144 194.561 362.212 194.663 362.299 194.749C362.386 194.835 362.49 194.903 362.604 194.948C362.718 194.993 362.841 195.015 362.964 195.013Z" fill="#B8D8C7"/>
<path d="M53.7209 230.854H109.744C110.434 230.849 111.095 230.576 111.583 230.095C112.071 229.613 112.347 228.961 112.352 228.28V211.493C112.347 210.812 112.071 210.16 111.583 209.679C111.095 209.197 110.434 208.925 109.744 208.92H53.7209C53.0306 208.925 52.3699 209.197 51.8817 209.679C51.3936 210.16 51.1172 210.812 51.1123 211.493V228.28C51.1172 228.961 51.3936 229.613 51.8817 230.095C52.3699 230.576 53.0306 230.849 53.7209 230.854Z" stroke="#B8D8C7" stroke-width="1.8" stroke-linecap="round" stroke-linejoin="round"/>
<path d="M75.3352 214.862H88.2539C88.499 214.856 88.7323 214.757 88.9057 214.586C89.0791 214.415 89.1793 214.185 89.1855 213.943C89.1793 213.702 89.0791 213.471 88.9057 213.3C88.7323 213.129 88.499 213.031 88.2539 213.024H75.3352C75.0901 213.031 74.8567 213.129 74.6833 213.3C74.51 213.471 74.4098 213.702 74.4035 213.943C74.401 214.065 74.4233 214.185 74.4692 214.298C74.5152 214.411 74.5837 214.513 74.6707 214.599C74.7578 214.685 74.8615 214.752 74.9756 214.798C75.0898 214.843 75.2121 214.865 75.3352 214.862Z" fill="#B8D8C7"/>
<path d="M125.643 230.854H181.666C182.356 230.849 183.017 230.576 183.505 230.095C183.993 229.613 184.27 228.961 184.275 228.28V211.493C184.27 210.812 183.993 210.16 183.505 209.679C183.017 209.197 182.356 208.925 181.666 208.92H125.643C124.953 208.925 124.292 209.197 123.804 209.679C123.316 210.16 123.04 210.812 123.035 211.493V228.28C123.04 228.961 123.316 229.613 123.804 230.095C124.292 230.576 124.953 230.849 125.643 230.854Z" stroke="#B8D8C7" stroke-width="1.8" stroke-linecap="round" stroke-linejoin="round"/>
<path d="M147.258 214.862H160.176C160.421 214.856 160.655 214.757 160.828 214.586C161.001 214.415 161.102 214.185 161.108 213.943C161.102 213.702 161.001 213.471 160.828 213.3C160.655 213.129 160.421 213.031 160.176 213.024H147.258C147.012 213.031 146.779 213.129 146.606 213.3C146.432 213.471 146.332 213.702 146.326 213.943C146.323 214.065 146.346 214.185 146.392 214.298C146.438 214.411 146.506 214.513 146.593 214.599C146.68 214.685 146.784 214.752 146.898 214.798C147.012 214.843 147.134 214.865 147.258 214.862Z" fill="#B8D8C7"/>
<path d="M412.837 183.004H468.86C469.55 182.999 470.211 182.727 470.699 182.245C471.187 181.763 471.463 181.112 471.468 180.431V163.644C471.463 162.963 471.187 162.311 470.699 161.829C470.211 161.348 469.55 161.075 468.86 161.07H412.837C412.147 161.075 411.486 161.348 410.998 161.829C410.51 162.311 410.233 162.963 410.229 163.644V180.431C410.233 181.112 410.51 181.763 410.998 182.245C411.486 182.727 412.147 182.999 412.837 183.004Z" stroke="#B8D8C7" stroke-width="1.8" stroke-linecap="round" stroke-linejoin="round"/>
<path d="M434.389 166.951H447.308C447.553 166.945 447.787 166.846 447.96 166.675C448.133 166.504 448.233 166.274 448.24 166.032C448.233 165.791 448.133 165.56 447.96 165.389C447.787 165.218 447.553 165.119 447.308 165.113H434.389C434.144 165.119 433.911 165.218 433.738 165.389C433.564 165.56 433.464 165.791 433.458 166.032C433.455 166.154 433.478 166.274 433.523 166.387C433.569 166.5 433.638 166.602 433.725 166.688C433.812 166.774 433.916 166.841 434.03 166.886C434.144 166.932 434.266 166.954 434.389 166.951Z" fill="#B8D8C7"/>
<path d="M412.837 211.064H468.86C469.55 211.059 470.211 210.786 470.699 210.305C471.187 209.823 471.464 209.171 471.469 208.49V191.703C471.464 191.022 471.187 190.37 470.699 189.889C470.211 189.407 469.55 189.135 468.86 189.13H412.837C412.147 189.135 411.486 189.407 410.998 189.889C410.51 190.37 410.234 191.022 410.229 191.703V208.429C410.225 208.771 410.289 209.11 410.418 209.428C410.547 209.745 410.738 210.035 410.98 210.279C411.222 210.524 411.511 210.719 411.829 210.854C412.148 210.988 412.491 211.06 412.837 211.064Z" stroke="#B8D8C7" stroke-width="1.8" stroke-linecap="round" stroke-linejoin="round"/>
<path d="M434.389 195.013H447.308C447.553 195.007 447.787 194.908 447.96 194.737C448.133 194.566 448.233 194.336 448.24 194.094C448.233 193.852 448.133 193.622 447.96 193.451C447.787 193.28 447.553 193.181 447.308 193.175H434.389C434.144 193.181 433.911 193.28 433.738 193.451C433.564 193.622 433.464 193.852 433.458 194.094C433.455 194.215 433.478 194.336 433.523 194.448C433.569 194.561 433.638 194.663 433.725 194.749C433.812 194.835 433.916 194.903 434.03 194.948C434.144 194.993 434.266 195.015 434.389 195.013Z" fill="#B8D8C7"/>
<path d="M-27.829 140.484H254.769C255.524 140.476 256.246 140.177 256.78 139.65C257.314 139.123 257.618 138.411 257.626 137.666V88.8359C257.618 88.0909 257.314 87.3786 256.78 86.8518C256.246 86.325 255.524 86.0255 254.769 86.0176H-27.829C-28.5842 86.0255 -29.3062 86.325 -29.8403 86.8518C-30.3743 87.3786 -30.678 88.0909 -30.686 88.8359V137.666C-30.6868 138.036 -30.6135 138.403 -30.4702 138.745C-30.3269 139.088 -30.1165 139.399 -29.851 139.66C-29.5856 139.922 -29.2703 140.13 -28.9233 140.271C-28.5763 140.413 -28.2044 140.485 -27.829 140.484Z" stroke="#B8D8C7" stroke-width="1.8" stroke-linecap="round" stroke-linejoin="round"/>
<path d="M-27.829 201.139H254.769C255.524 201.131 256.246 200.832 256.78 200.305C257.314 199.778 257.618 199.066 257.626 198.321V149.491C257.618 148.746 257.314 148.034 256.78 147.507C256.246 146.98 255.524 146.681 254.769 146.673H-27.829C-28.5842 146.681 -29.3062 146.98 -29.8403 147.507C-30.3744 148.034 -30.678 148.746 -30.686 149.491V198.321C-30.678 199.066 -30.3744 199.778 -29.8403 200.305C-29.3062 200.832 -28.5842 201.131 -27.829 201.139Z" stroke="#B8D8C7" stroke-width="1.8" stroke-linecap="round" stroke-linejoin="round"/>
<path d="M238.639 109.68H232.49V140.497H238.639V109.68Z" stroke="#B8D8C7" stroke-width="1.8" stroke-linecap="round" stroke-linejoin="round"/>
<path d="M232.465 118.085H226.068V140.509H232.465V118.085Z" stroke="#B8D8C7" stroke-width="1.8" stroke-linecap="round" stroke-linejoin="round"/>
<path d="M53.3168 170.235H47.168V201.053H53.3168V170.235Z" stroke="#B8D8C7" stroke-width="1.8" stroke-linecap="round" stroke-linejoin="round"/>
<path d="M47.1438 178.642H40.7466V201.065H47.1438V178.642Z" stroke="#B8D8C7" stroke-width="1.8" stroke-linecap="round" stroke-linejoin="round"/>
<path d="M65.7948 170.235H59.646V201.053H65.7948V170.235Z" stroke="#B8D8C7" stroke-width="1.8" stroke-linecap="round" stroke-linejoin="round"/>
<path d="M71.5496 169.541L65.686 171.367L75.0908 200.755L80.9544 198.929L71.5496 169.541Z" stroke="#B8D8C7" stroke-width="1.8" stroke-linecap="round" stroke-linejoin="round"/>
<path d="M59.6834 178.642H53.2861V201.065H59.6834V178.642Z" stroke="#B8D8C7" stroke-width="1.8" stroke-linecap="round" stroke-linejoin="round"/>
<path d="M47.2612 113.711L46.5779 104.582C46.5646 104.439 46.5823 104.295 46.6298 104.159C46.6773 104.024 46.7535 103.9 46.8534 103.795C46.9533 103.691 47.0745 103.609 47.2091 103.554C47.3437 103.5 47.4884 103.474 47.6338 103.479H52.9752C53.119 103.48 53.2612 103.509 53.3931 103.566C53.525 103.622 53.6439 103.704 53.7426 103.807C53.8413 103.911 53.9178 104.032 53.9674 104.165C54.017 104.299 54.0386 104.44 54.0311 104.582L53.3479 113.711C53.3479 113.711 58.9377 117.264 58.8756 120.205C58.8135 122.472 57.4471 133.316 56.826 138.095C56.7469 138.738 56.4314 139.331 55.9391 139.76C55.4469 140.189 54.8122 140.425 54.1553 140.423H46.4537C45.7968 140.425 45.1621 140.189 44.6699 139.76C44.1777 139.331 43.8621 138.738 43.783 138.095C43.1619 133.316 41.7955 122.472 41.7334 120.205C41.6713 117.264 47.2612 113.711 47.2612 113.711Z" fill="#B8D8C7"/>
<path d="M444.202 258.914H-149.439" stroke="#B8D8C7" stroke-width="1.8" stroke-linecap="round" stroke-linejoin="round"/>
</g>
<path d="M173.282 201.139H121.607C120.8 201.138 120.027 200.821 119.457 200.258C118.886 199.696 118.565 198.933 118.563 198.137V190.05C118.565 189.254 118.886 188.492 119.457 187.929C120.027 187.366 120.8 187.049 121.607 187.048H173.282C174.088 187.049 174.862 187.366 175.432 187.929C176.002 188.492 176.324 189.254 176.325 190.05V198.076C176.331 198.475 176.257 198.871 176.106 199.241C175.956 199.611 175.733 199.948 175.45 200.233C175.168 200.518 174.83 200.745 174.458 200.9C174.086 201.056 173.686 201.137 173.282 201.139Z" stroke="#B8D8C7" stroke-width="1.8" stroke-linecap="round" stroke-linejoin="round"/>
<path d="M166.015 174.182H128.749V187.048H166.015V174.182Z" stroke="#B8D8C7" stroke-width="1.8" stroke-linecap="round" stroke-linejoin="round"/>
<path d="M124.401 192.684C124.916 192.684 125.333 192.272 125.333 191.765C125.333 191.257 124.916 190.846 124.401 190.846C123.887 190.846 123.47 191.257 123.47 191.765C123.47 192.272 123.887 192.684 124.401 192.684Z" fill="#B8D8C7"/>
<path d="M163.282 208.43H156.885L156.202 216.272H162.35L163.282 208.43Z" fill="#4EBC62"/>
<path d="M156.202 216.272L148.065 307.561C148.048 307.807 148.082 308.054 148.164 308.288C148.247 308.521 148.376 308.735 148.544 308.918C148.712 309.101 148.916 309.249 149.143 309.353C149.37 309.456 149.616 309.514 149.866 309.521C150.313 309.521 150.743 309.358 151.076 309.064C151.408 308.77 151.619 308.366 151.668 307.928L162.35 216.272H156.202Z" fill="#B0D7C0"/>
<path d="M219.18 208.43H212.783L213.715 216.272H219.864L219.18 208.43Z" fill="#B0D7C0"/>
<path d="M213.715 216.272L224.398 307.928C224.471 308.38 224.717 308.786 225.084 309.065C225.452 309.343 225.914 309.472 226.375 309.425C226.836 309.378 227.261 309.159 227.564 308.812C227.866 308.465 228.022 308.017 228 307.561L219.864 216.272H213.715Z" fill="#B0D7C0"/>
<path d="M221.541 258.056H155.581V261.18H221.541V258.056Z" fill="#B0D7C0"/>
<path d="M225.764 210.697H150.301C150.015 210.699 149.732 210.644 149.467 210.537C149.203 210.43 148.963 210.272 148.761 210.073C148.558 209.873 148.398 209.636 148.29 209.375C148.181 209.114 148.126 208.835 148.127 208.553V208.369C148.126 208.087 148.181 207.807 148.29 207.546C148.398 207.286 148.558 207.049 148.761 206.849C148.963 206.65 149.203 206.492 149.467 206.385C149.732 206.277 150.015 206.223 150.301 206.225H225.826C226.112 206.223 226.396 206.277 226.66 206.385C226.925 206.492 227.165 206.65 227.367 206.849C227.569 207.049 227.729 207.286 227.838 207.546C227.947 207.807 228.002 208.087 228 208.369V208.553C227.99 209.129 227.75 209.678 227.331 210.08C226.912 210.482 226.349 210.704 225.764 210.697Z" fill="#22272E"/>
<path d="M342.095 172.773L286.507 169.403C285.529 169.349 284.574 169.091 283.706 168.645C282.837 168.199 282.075 167.576 281.47 166.816C280.864 166.057 280.43 165.179 280.196 164.241C279.961 163.303 279.932 162.327 280.11 161.377L301.289 44.2953C301.654 42.343 302.65 40.5599 304.128 39.2125C305.606 37.8651 307.486 37.026 309.488 36.8207L365.324 31.4904C366.385 31.3915 367.455 31.5345 368.452 31.9084C369.448 32.2822 370.344 32.877 371.07 33.6468C371.797 34.4165 372.334 35.3406 372.641 36.3477C372.947 37.3548 373.015 38.418 372.839 39.4551L351.722 165.176C351.365 167.397 350.18 169.407 348.399 170.812C346.619 172.217 344.371 172.916 342.095 172.773Z" fill="#4EBC62"/>
<path d="M339.052 172.405L283.464 169.036C282.486 168.982 281.531 168.724 280.662 168.278C279.794 167.832 279.032 167.208 278.426 166.449C277.821 165.69 277.387 164.812 277.152 163.874C276.918 162.936 276.888 161.96 277.066 161.01L298.246 43.9281C298.611 41.9759 299.606 40.1927 301.084 38.8453C302.562 37.4979 304.443 36.6588 306.444 36.4535L362.281 31.1232C363.342 31.0243 364.412 31.1673 365.408 31.5412C366.405 31.915 367.301 32.5098 368.027 33.2796C368.753 34.0493 369.29 34.9734 369.597 35.9805C369.904 36.9876 369.972 38.0508 369.796 39.088L348.679 164.808C348.311 167.025 347.123 169.028 345.345 170.432C343.567 171.835 341.325 172.538 339.052 172.405Z" fill="#EFEFEF"/>
<mask id="mask1_1614_9626" style="mask-type:luminance" maskUnits="userSpaceOnUse" x="276" y="31" width="94" height="142">
<path d="M339.052 172.405L283.464 169.036C282.486 168.982 281.531 168.724 280.662 168.278C279.794 167.832 279.032 167.208 278.426 166.449C277.821 165.69 277.387 164.812 277.152 163.874C276.918 162.936 276.888 161.96 277.066 161.01L298.246 43.9281C298.611 41.9759 299.606 40.1927 301.084 38.8453C302.562 37.4979 304.443 36.6588 306.444 36.4535L362.281 31.1232C363.342 31.0243 364.412 31.1673 365.408 31.5412C366.405 31.915 367.301 32.5098 368.027 33.2796C368.753 34.0493 369.29 34.9734 369.597 35.9805C369.904 36.9876 369.972 38.0508 369.796 39.088L348.679 164.808C348.311 167.025 347.123 169.028 345.345 170.432C343.567 171.835 341.325 172.538 339.052 172.405Z" fill="white"/>
</mask>
<g mask="url(#mask1_1614_9626)">
<path d="M395.075 106.237L309.488 107.707C308.966 107.715 308.448 107.609 307.973 107.397C307.497 107.185 307.075 106.871 306.736 106.479C306.398 106.086 306.152 105.625 306.015 105.128C305.879 104.63 305.856 104.11 305.948 103.603L312.221 68.3739C312.399 67.4017 312.897 66.5146 313.638 65.85C314.379 65.1855 315.322 64.7805 316.32 64.6979L400.789 59.1226C401.464 59.0794 402.14 59.1872 402.767 59.438C403.394 59.6889 403.955 60.0762 404.409 60.571C404.863 61.0659 405.198 61.6555 405.388 62.2958C405.578 62.9362 405.62 63.6107 405.509 64.269L399.298 102.561C399.182 103.582 398.686 104.523 397.905 105.203C397.125 105.882 396.116 106.251 395.075 106.237Z" fill="#4EBC62"/>
</g>
<mask id="mask2_1614_9626" style="mask-type:luminance" maskUnits="userSpaceOnUse" x="276" y="31" width="94" height="142">
<path d="M339.052 172.405L283.464 169.036C282.486 168.982 281.531 168.724 280.662 168.278C279.794 167.832 279.032 167.208 278.426 166.449C277.821 165.69 277.387 164.812 277.152 163.874C276.918 162.936 276.888 161.96 277.066 161.01L298.246 43.9281C298.611 41.9759 299.606 40.1927 301.084 38.8453C302.562 37.4979 304.443 36.6588 306.444 36.4535L362.281 31.1232C363.342 31.0243 364.412 31.1673 365.408 31.5412C366.405 31.915 367.301 32.5098 368.027 33.2796C368.753 34.0493 369.29 34.9734 369.597 35.9805C369.904 36.9876 369.972 38.0508 369.796 39.088L348.679 164.808C348.311 167.025 347.123 169.028 345.345 170.432C343.567 171.835 341.325 172.538 339.052 172.405Z" fill="white"/>
</mask>
<g mask="url(#mask2_1614_9626)">
<path d="M385.633 163.032L300.046 159.356C299.543 159.329 299.051 159.199 298.602 158.972C298.153 158.746 297.757 158.429 297.441 158.042C297.124 157.654 296.894 157.206 296.765 156.725C296.636 156.244 296.612 155.742 296.693 155.251L303.152 119.164C303.337 118.141 303.879 117.213 304.685 116.542C305.49 115.871 306.508 115.498 307.562 115.488L392.155 114.814C392.808 114.813 393.454 114.951 394.048 115.22C394.642 115.488 395.169 115.881 395.594 116.37C396.02 116.859 396.332 117.434 396.51 118.054C396.688 118.674 396.728 119.324 396.627 119.961L390.291 159.356C390.102 160.423 389.524 161.385 388.667 162.062C387.809 162.739 386.73 163.084 385.633 163.032Z" fill="#4EBC62"/>
</g>
<path d="M296.941 50.9735L368.74 45.3369" stroke="#4EBC62" stroke-width="1.8" stroke-linecap="round" stroke-linejoin="round"/>
<path d="M333.462 42.4568L327.313 43.0082C326.754 43.0695 326.444 42.6406 326.506 42.0279C326.558 41.7378 326.699 41.4704 326.91 41.2622C327.121 41.0539 327.392 40.9148 327.686 40.8639L333.835 40.3125C334.394 40.2512 334.766 40.6801 334.642 41.2927C334.581 41.5787 334.437 41.8411 334.228 42.0477C334.018 42.2544 333.752 42.3966 333.462 42.4568Z" fill="#22272E"/>
<path d="M337.561 42.0896C337.002 42.1509 336.629 41.722 336.753 41.1093C336.805 40.8192 336.946 40.5519 337.157 40.3436C337.368 40.1353 337.639 39.9962 337.934 39.9453C338.493 39.884 338.865 40.3129 338.741 40.9256C338.71 41.2238 338.575 41.5023 338.36 41.7143C338.146 41.9263 337.863 42.0588 337.561 42.0896Z" fill="#22272E"/>
<path d="M406.751 46.2553L383.087 48.032C382.891 48.0558 382.692 48.033 382.506 47.9654C382.321 47.8979 382.154 47.7876 382.02 47.6438C381.887 47.5 381.79 47.3267 381.738 47.1385C381.686 46.9503 381.68 46.7525 381.721 46.5616L384.081 32.4089C384.147 31.989 384.354 31.6033 384.67 31.3143C384.985 31.0252 385.391 30.8496 385.82 30.8159L409.235 28.3653C409.467 28.3404 409.702 28.3683 409.921 28.4466C410.14 28.525 410.338 28.6518 410.5 28.8174C410.662 28.983 410.783 29.183 410.855 29.4019C410.926 29.6209 410.946 29.8531 410.912 30.0807L408.614 44.6623C408.503 45.0824 408.265 45.4593 407.933 45.7436C407.6 46.028 407.188 46.2063 406.751 46.2553Z" stroke="#4EBC62" stroke-width="1.8" stroke-linecap="round" stroke-linejoin="round"/>
<path d="M384.702 31.1848L395.012 37.7404C395.289 37.9199 395.613 38.0155 395.944 38.0155C396.275 38.0155 396.599 37.9199 396.876 37.7404L410.291 28.6729" stroke="#4EBC62" stroke-width="1.8" stroke-linecap="round" stroke-linejoin="round"/>
<path d="M299.985 72.7236L280.544 73.7651L277.687 75.6031C277.539 75.6991 277.366 75.7496 277.189 75.7481C277.011 75.7466 276.839 75.6932 276.692 75.5948C276.546 75.4964 276.433 75.3572 276.366 75.1951C276.3 75.033 276.284 74.8551 276.321 74.6841L279.364 58.0194C279.483 57.3714 279.816 56.7802 280.31 56.3372C280.804 55.8943 281.432 55.6242 282.097 55.5687L302.345 54.0371C302.654 54.0101 302.965 54.0535 303.254 54.1638C303.543 54.2742 303.802 54.4485 304.012 54.6735C304.222 54.8984 304.377 55.1679 304.465 55.4612C304.553 55.7546 304.571 56.0638 304.519 56.3652L301.91 70.9468C301.842 71.415 301.614 71.8462 301.264 72.1693C300.914 72.4923 300.463 72.6879 299.985 72.7236Z" fill="#4EBC62"/>
<path d="M283.153 60.4697L299.55 59.3057" stroke="#22272E" stroke-width="1.8" stroke-linecap="round" stroke-linejoin="round"/>
<path d="M282.408 64.5735L298.805 63.4707" stroke="#22272E" stroke-width="1.8" stroke-linecap="round" stroke-linejoin="round"/>
<path d="M281.663 68.6181L290.234 68.1279" stroke="#22272E" stroke-width="1.8" stroke-linecap="round" stroke-linejoin="round"/>
<path d="M390.478 102.499L304.891 103.969C304.369 103.977 303.852 103.871 303.376 103.659C302.9 103.446 302.478 103.133 302.14 102.74C301.801 102.348 301.555 101.887 301.419 101.389C301.282 100.892 301.259 100.371 301.351 99.8643L307.624 64.6356C307.802 63.6634 308.3 62.7763 309.041 62.1118C309.783 61.4472 310.725 61.0422 311.723 60.9596L396.192 55.3843C396.867 55.3411 397.543 55.4489 398.17 55.6998C398.797 55.9506 399.358 56.3379 399.812 56.8327C400.266 57.3276 400.601 57.9172 400.791 58.5576C400.982 59.1979 401.023 59.8724 400.912 60.5307L394.701 98.8228C394.576 99.8396 394.077 100.776 393.299 101.454C392.52 102.131 391.516 102.503 390.478 102.499Z" fill="#22272E"/>
<path d="M327.064 75.8476C326.629 78.3596 324.393 80.5039 322.095 80.6264C319.797 80.749 318.307 78.7884 318.741 76.2765C319.176 73.7645 321.412 71.6202 323.71 71.4976C326.008 71.3751 327.499 73.3357 327.064 75.8476Z" fill="#EFEFEF"/>
<path d="M325.45 91.9612L315.264 92.2675C314.939 92.2803 314.616 92.2214 314.317 92.0952C314.019 91.9689 313.753 91.7784 313.538 91.5376C313.324 91.2969 313.167 91.0119 313.079 90.7036C312.99 90.3953 312.973 90.0713 313.028 89.7555L313.214 88.6527C314.022 84.119 317.997 80.2591 322.158 80.1366C326.319 79.9528 329.114 83.5676 328.307 88.1626L328.058 89.7555C327.937 90.3582 327.613 90.903 327.14 91.3029C326.667 91.7028 326.072 91.9346 325.45 91.9612Z" fill="#EFEFEF"/>
<path d="M381.286 76.2766L340.729 78.1146C340.529 78.129 340.329 78.0975 340.143 78.0227C339.958 77.9479 339.792 77.8318 339.66 77.6834C339.528 77.5351 339.432 77.3586 339.38 77.1676C339.329 76.9767 339.323 76.7766 339.362 76.5829L339.797 73.8872C339.877 73.4465 340.104 73.0446 340.441 72.7451C340.779 72.4456 341.208 72.2654 341.66 72.233L382.28 70.1499C382.481 70.1316 382.683 70.1604 382.87 70.2339C383.058 70.3074 383.225 70.4235 383.358 70.5729C383.491 70.7222 383.587 70.9004 383.637 71.0931C383.687 71.2858 383.69 71.4874 383.646 71.6816L383.149 74.6224C383.089 75.0717 382.868 75.485 382.527 75.7881C382.185 76.0913 381.745 76.2645 381.286 76.2766Z" fill="#4EBC62"/>
<path d="M340.294 85.3438L340.915 87.243L342.84 87.5494L341.163 89.2036L341.039 91.3479L339.424 90.4902L337.437 91.4705L338.058 89.3261L336.94 87.7944L338.99 87.3043L340.294 85.3438Z" fill="#EFEFEF"/>
<path d="M349.61 85.0371L350.293 86.9364L352.219 87.2427L350.542 88.8969L350.48 91.0413L348.741 90.1836L346.753 91.1638L347.374 89.0195L346.256 87.4265L348.306 86.9976L349.61 85.0371Z" fill="#EFEFEF"/>
<path d="M359.175 84.6699L359.858 86.5692L361.846 86.9368L360.107 88.591L360.044 90.7966L358.305 89.8776L356.256 90.9192L356.877 88.7136L355.697 87.1206L357.871 86.6305L359.175 84.6699Z" fill="#EFEFEF"/>
<path d="M368.926 84.3027L369.609 86.2633L371.659 86.5696L369.92 88.2851L369.858 90.4907L368.056 89.5717L365.945 90.6133L366.628 88.3464L365.386 86.8147L367.56 86.3246L368.926 84.3027Z" fill="#EFEFEF"/>
<path d="M378.926 83.9355L379.609 85.8961L381.72 86.2637L379.919 87.9179L379.857 90.1848L377.994 89.2658L375.882 90.3074L376.565 88.0405L375.323 86.4475L377.497 85.9574L378.926 83.9355Z" fill="#EFEFEF"/>
<path d="M380.975 159.293L295.45 155.556C294.947 155.53 294.454 155.399 294.006 155.173C293.557 154.946 293.161 154.629 292.845 154.242C292.528 153.855 292.298 153.406 292.169 152.925C292.04 152.444 292.015 151.942 292.096 151.451L298.556 115.365C298.741 114.341 299.283 113.413 300.088 112.742C300.894 112.071 301.911 111.698 302.966 111.689L387.559 111.015C388.212 111.013 388.858 111.151 389.451 111.42C390.045 111.688 390.573 112.081 390.998 112.57C391.423 113.059 391.736 113.634 391.914 114.254C392.092 114.874 392.132 115.525 392.03 116.161L385.695 155.556C385.506 156.639 384.921 157.617 384.052 158.306C383.183 158.994 382.088 159.345 380.975 159.293Z" fill="#22272E"/>
<path d="M317.935 127.986C317.5 130.559 315.264 132.642 312.904 132.581C310.544 132.52 309.115 130.437 309.55 127.864C309.985 125.29 312.221 123.269 314.519 123.269C316.817 123.269 318.431 125.413 317.935 127.986Z" fill="#EFEFEF"/>
<path d="M316.133 144.528L305.947 144.222C305.637 144.207 305.332 144.128 305.054 143.991C304.776 143.854 304.529 143.661 304.331 143.424C304.132 143.188 303.985 142.914 303.9 142.619C303.815 142.323 303.793 142.014 303.836 141.71L304.084 140.423C304.891 135.767 308.866 132.091 313.028 132.152C317.189 132.213 319.984 136.073 319.114 140.791L318.866 142.322C318.756 142.953 318.419 143.523 317.917 143.928C317.415 144.333 316.782 144.546 316.133 144.528Z" fill="#EFEFEF"/>
<path d="M372.031 131.784L331.474 131.233C331.282 131.23 331.092 131.186 330.918 131.105C330.745 131.023 330.591 130.906 330.467 130.761C330.343 130.615 330.253 130.446 330.202 130.263C330.15 130.08 330.139 129.888 330.17 129.701L330.666 126.883C330.743 126.419 330.986 125.997 331.35 125.694C331.715 125.39 332.177 125.225 332.654 125.229L373.273 125.535C373.466 125.538 373.655 125.581 373.829 125.663C374.003 125.744 374.157 125.862 374.28 126.007C374.404 126.152 374.494 126.322 374.546 126.505C374.597 126.688 374.608 126.879 374.578 127.067L374.081 130.13C373.979 130.593 373.72 131.009 373.348 131.309C372.976 131.61 372.512 131.777 372.031 131.784Z" fill="#4EBC62"/>
<path d="M331.101 138.646L331.722 140.607L333.648 141.036L331.971 142.629L331.909 144.834L330.232 143.793L328.244 144.712L328.865 142.506L327.81 140.913L329.797 140.546L331.101 138.646Z" fill="#EFEFEF"/>
<path d="M340.48 138.83L341.101 140.791L343.089 141.281L341.35 142.874L341.287 145.079L339.548 144.099L337.561 145.018L338.182 142.812L337.064 141.097L339.176 140.791L340.48 138.83Z" fill="#EFEFEF"/>
<path d="M350.045 139.076L350.666 141.037L352.716 141.527L350.977 143.12L350.852 145.387L349.113 144.345L347.064 145.264L347.747 143.059L346.567 141.343L348.679 141.037L350.045 139.076Z" fill="#EFEFEF"/>
<path d="M359.796 139.259L360.479 141.281L362.529 141.771L360.728 143.425L360.666 145.692L358.864 144.65L356.753 145.569L357.436 143.302L356.256 141.587L358.43 141.219L359.796 139.259Z" fill="#63737A"/>
<path d="M369.734 139.504L370.479 141.526L372.529 142.016L370.727 143.67L370.665 145.998L368.864 144.895L366.69 145.876L367.374 143.548L366.131 141.893L368.367 141.526L369.734 139.504Z" fill="#63737A"/>
<path d="M379.485 18.0731C379.154 17.7172 378.724 17.4656 378.249 17.3498C377.774 17.234 377.275 17.2593 376.814 17.4224C376.353 17.5856 375.952 17.8793 375.66 18.2667C375.368 18.6542 375.198 19.1181 375.172 19.6002C375.147 20.0823 375.266 20.5612 375.515 20.9768C375.764 21.3923 376.132 21.726 376.573 21.9359C377.014 22.1459 377.508 22.2227 377.993 22.1567C378.477 22.0908 378.932 21.8851 379.298 21.5654C379.546 21.3498 379.747 21.0877 379.891 20.7946C380.034 20.5014 380.117 20.1829 380.134 19.8578C380.152 19.5327 380.103 19.2074 379.992 18.901C379.88 18.5946 379.708 18.3132 379.485 18.0731Z" fill="#22272E"/>
<path d="M376.131 12.3141L375.696 11.8239C375.347 11.4436 374.924 11.1354 374.453 10.917C373.983 10.6986 373.473 10.5745 372.953 10.5517C372.433 10.5289 371.914 10.6079 371.425 10.7842C370.937 10.9606 370.488 11.2306 370.106 11.5789C369.721 11.9235 369.408 12.3401 369.187 12.8045C368.965 13.269 368.839 13.7721 368.816 14.2848C368.793 14.7975 368.873 15.3097 369.052 15.7917C369.231 16.2736 369.505 16.7159 369.858 17.0929L370.292 17.5831C370.799 18.1435 371.161 18.8159 371.348 19.5436C371.473 20.095 371.659 20.769 371.845 21.3816C371.924 21.6872 372.082 21.9675 372.302 22.1957C372.523 22.4238 372.799 22.5922 373.105 22.6845C373.411 22.7768 373.735 22.79 374.048 22.7227C374.36 22.6555 374.65 22.5102 374.889 22.3006L377.683 19.7887L380.478 17.2767C380.71 17.0629 380.882 16.7944 380.979 16.4965C381.076 16.1986 381.094 15.8813 381.032 15.5746C380.97 15.2678 380.829 14.9818 380.624 14.7436C380.418 14.5054 380.154 14.3229 379.857 14.2134C379.236 13.9683 378.615 13.7845 378.056 13.6007C377.346 13.2805 376.695 12.8457 376.131 12.3141Z" fill="#4EBC62"/>
<path d="M142.724 97.781L68.4413 110.034C67.8046 110.135 67.1539 110.11 66.527 109.961C65.9001 109.812 65.3095 109.541 64.7895 109.165C64.2694 108.789 63.8303 108.315 63.4976 107.77C63.165 107.225 62.9453 106.62 62.8515 105.991L53.3488 38.9644C53.2601 38.3513 53.3152 37.7263 53.5097 37.1375C53.7043 36.5486 54.0332 36.0117 54.4711 35.5679C54.909 35.1241 55.4443 34.7853 56.0357 34.5775C56.6272 34.3697 57.259 34.2985 57.8827 34.3694L131.296 42.9468C132.324 43.0646 133.288 43.5022 134.047 44.1961C134.806 44.89 135.322 45.8043 135.519 46.8066L144.96 94.6563C145.083 95.363 144.916 96.0889 144.497 96.6746C144.078 97.2603 143.44 97.6582 142.724 97.781Z" fill="#4EBC62"/>
<path d="M145.829 96.9235L71.5464 109.177C70.9097 109.278 70.259 109.253 69.6321 109.104C69.0052 108.955 68.4146 108.684 67.8946 108.308C67.3745 107.932 66.9354 107.457 66.6027 106.912C66.27 106.367 66.0504 105.763 65.9566 105.133L56.3917 38.107C56.3031 37.4939 56.3581 36.8689 56.5527 36.28C56.7473 35.6912 57.0762 35.1543 57.5141 34.7105C57.952 34.2667 58.4872 33.9278 59.0787 33.7201C59.6701 33.5123 60.302 33.4411 60.9257 33.5119L134.339 42.0894C135.367 42.2072 136.331 42.6447 137.09 43.3387C137.849 44.0326 138.365 44.9469 138.562 45.9492L148.003 93.7989C148.077 94.1456 148.078 94.5033 148.008 94.8505C147.937 95.1978 147.796 95.5273 147.593 95.8193C147.39 96.1113 147.129 96.3597 146.826 96.5495C146.522 96.7392 146.184 96.8665 145.829 96.9235Z" fill="#EFEFEF"/>
<path d="M98.378 93.5532L80.0557 95.6363C79.4054 95.7236 78.7464 95.5536 78.2228 95.1633C77.6991 94.773 77.3533 94.1942 77.2608 93.5532L70.553 49.3182C70.5057 49.0287 70.5266 48.7322 70.614 48.4519C70.7015 48.1715 70.8532 47.9148 71.0573 47.7016C71.2615 47.4883 71.5126 47.3243 71.7914 47.2222C72.0701 47.12 72.3689 47.0825 72.6647 47.1126L90.987 48.4605C91.5537 48.4963 92.0909 48.7226 92.509 49.1016C92.9271 49.4807 93.201 49.9896 93.285 50.5436L100.117 91.3475C100.168 91.8647 100.016 92.3814 99.6922 92.7915C99.3689 93.2017 98.8986 93.4742 98.378 93.5532Z" fill="#22272E"/>
<path d="M99.8683 92.7583L81.546 94.8413C80.8957 94.9287 80.2367 94.7587 79.713 94.3684C79.1893 93.9781 78.8435 93.3992 78.7511 92.7583L72.0432 48.5233C71.9959 48.2337 72.0168 47.9373 72.1043 47.657C72.1917 47.3766 72.3434 47.1199 72.5476 46.9067C72.7517 46.6934 73.0029 46.5294 73.2816 46.4272C73.5604 46.3251 73.8592 46.2876 74.155 46.3177L92.4772 47.6656C93.0439 47.7014 93.5811 47.9277 93.9992 48.3067C94.4174 48.6857 94.6913 49.1946 94.7753 49.7487L101.607 90.5526C101.671 91.0722 101.523 91.5954 101.198 92.0084C100.872 92.4215 100.394 92.6909 99.8683 92.7583Z" fill="#4EBC62"/>
<path d="M81.7944 49.748L84.6515 49.9319" stroke="#22272E" stroke-width="1.8" stroke-linecap="round" stroke-linejoin="round"/>
<path d="M86.1421 50.0547H86.3284" stroke="#22272E" stroke-width="1.8" stroke-linecap="round" stroke-linejoin="round"/>
<path d="M72.6025 52.0146L95.3346 53.1787" stroke="#22272E" stroke-width="1.8" stroke-linecap="round" stroke-linejoin="round"/>
<path d="M78.2544 89.3262L100.986 87.2432" stroke="#22272E" stroke-width="1.8" stroke-linecap="round" stroke-linejoin="round"/>
<path d="M124.526 55.2614C124.837 56.9769 124.029 58.3248 122.725 58.2635C121.421 58.2023 119.992 56.7319 119.682 55.0164C119.371 53.3009 120.178 51.8917 121.545 52.0143C122.911 52.1368 124.153 53.546 124.526 55.2614Z" fill="#22272E"/>
<path d="M126.948 66.2289H121.358C120.881 66.2322 120.419 66.0673 120.055 65.764C119.69 65.4607 119.448 65.0389 119.371 64.5747L119.184 63.5945C118.625 60.3473 120.178 57.8353 122.6 57.8966C125.023 57.9579 127.383 60.5311 127.942 63.6557L128.128 64.7585C128.177 64.9346 128.183 65.1196 128.146 65.2984C128.109 65.4773 128.03 65.645 127.915 65.7881C127.8 65.9313 127.653 66.0457 127.485 66.1223C127.317 66.1989 127.133 66.2354 126.948 66.2289Z" fill="#22272E"/>
<path d="M120.426 75.9092C120.737 77.7472 119.867 79.2789 118.439 79.4014C117.01 79.5239 115.52 78.0535 115.209 76.1542C114.899 74.255 115.768 72.7233 117.259 72.662C118.749 72.6007 120.054 74.0712 120.426 75.9092Z" fill="#22272E"/>
<path d="M122.911 87.6111L117.011 88.2238C116.495 88.2783 115.977 88.1379 115.562 87.8309C115.148 87.5239 114.866 87.0732 114.775 86.5696L114.588 85.5893C113.967 82.1583 115.644 79.2175 118.315 79.0337C120.861 78.8499 123.408 81.4231 124.029 84.7315L124.215 85.8343C124.262 86.0368 124.265 86.2468 124.223 86.4504C124.181 86.6539 124.095 86.8462 123.971 87.0144C123.848 87.1826 123.689 87.3229 123.507 87.4258C123.324 87.5287 123.121 87.5919 122.911 87.6111Z" fill="#22272E"/>
<path d="M135.581 75.1739C135.892 76.8894 135.209 78.2986 133.966 78.4211C132.724 78.5436 131.42 77.1345 131.109 75.419C130.799 73.7035 131.544 72.2331 132.786 72.1718C134.029 72.1106 135.271 73.5197 135.581 75.1739Z" fill="#22272E"/>
<path d="M137.817 86.0793L133.221 86.5695C132.713 86.6225 132.203 86.4802 131.798 86.1721C131.393 85.8641 131.124 85.4139 131.047 84.9153L130.923 84.1188C130.302 80.9329 131.731 78.2371 133.967 78.0533C136.202 77.9308 138.438 80.3202 138.997 83.3836L139.184 84.3026C139.24 84.7168 139.128 85.1362 138.872 85.4692C138.616 85.8022 138.237 86.0215 137.817 86.0793Z" fill="#22272E"/>
<path d="M103.16 67.3923L108.874 67.3311" stroke="#22272E" stroke-width="1.8" stroke-linecap="round" stroke-linejoin="round"/>
<path d="M108.75 69.9042L111.979 67.8211C112.068 67.7693 112.14 67.6944 112.189 67.6046C112.237 67.5148 112.259 67.4136 112.252 67.3122C112.246 67.2108 112.211 67.1131 112.152 67.0299C112.093 66.9467 112.012 66.8813 111.917 66.8408L107.942 64.819C107.848 64.7628 107.739 64.736 107.629 64.7421C107.519 64.7481 107.413 64.7868 107.326 64.853C107.239 64.9192 107.174 65.0099 107.14 65.1132C107.106 65.2164 107.104 65.3274 107.135 65.4317L107.88 69.5366C107.89 69.6314 107.925 69.7219 107.982 69.7988C108.039 69.8756 108.116 69.9359 108.205 69.9735C108.294 70.011 108.391 70.0244 108.487 70.0122C108.583 70 108.673 69.9627 108.75 69.9042Z" fill="#22272E"/>
<path d="M251.353 276.743C251.353 276.743 252.223 285.136 252.968 289.486C253.154 290.773 258.061 292.243 262.533 291.324C268.06 290.221 268.371 287.097 268.371 287.097C268.371 287.097 267.315 272.393 267.191 271.351C267.067 270.31 252.16 273.067 251.353 276.743Z" fill="#EFEFEF"/>
<path d="M267.005 282.196C262.719 284.34 257.129 284.401 253.837 284.217C253.107 284.179 252.414 283.888 251.88 283.395C251.346 282.902 251.005 282.238 250.918 281.522C250.608 278.826 250.359 276.743 250.359 276.743C251.229 272.638 267.936 269.575 268.061 270.739C268.123 271.29 268.433 275.272 268.744 279.255C268.772 279.858 268.622 280.457 268.314 280.978C268.005 281.5 267.551 281.923 267.005 282.196Z" fill="#22272E"/>
<path d="M252.844 288.996C252.844 288.996 252.036 290.038 252.409 292.427C252.781 294.817 252.347 305.538 253.713 306.825C255.08 308.112 270.483 307.193 277.377 305.661C284.768 304.007 289.426 301.127 289.923 299.595C290.668 297.39 290.047 297.083 282.408 294.878C274.768 292.672 270.917 289.548 269.303 287.771C268.982 287.401 268.588 287.098 268.146 286.882C267.704 286.665 267.222 286.539 266.729 286.51C266.236 286.482 265.742 286.551 265.278 286.715C264.813 286.879 264.386 287.134 264.023 287.465C263.092 288.261 261.974 291.141 259.924 291.141C255.017 291.079 253.34 288.751 252.844 288.996Z" fill="#22272E"/>
<path d="M279.613 293.224C279.613 293.224 273.899 293.714 269.737 299.595" stroke="white" stroke-width="1.8" stroke-linecap="round" stroke-linejoin="round"/>
<path d="M274.893 291.08C273.097 291.382 271.386 292.05 269.867 293.042C268.348 294.033 267.056 295.327 266.073 296.839" stroke="white" stroke-width="1.8" stroke-linecap="round" stroke-linejoin="round"/>
<path d="M199.429 276.926C199.429 276.926 198.56 288.751 198.436 289.302C198.311 289.854 199.305 292.733 205.205 293.53C211.106 294.326 213.093 290.773 213.093 290.773C213.093 290.773 215.205 279.929 215.578 277.968C215.95 276.007 201.355 274.905 199.429 276.926Z" fill="#EFEFEF"/>
<path d="M216.696 277.724C216.51 278.52 216.075 280.726 215.641 283.177C215.523 283.831 215.193 284.43 214.7 284.883C214.207 285.336 213.578 285.619 212.908 285.689C208.616 286.164 204.271 285.618 200.237 284.096C199.592 283.856 199.042 283.415 198.673 282.841C198.303 282.266 198.133 281.588 198.188 280.91C198.374 278.459 198.498 276.437 198.498 276.437C200.61 274.17 217.131 275.518 216.696 277.724Z" fill="#22272E"/>
<path d="M198.436 288.874C198.436 288.874 196.945 289.242 196.821 291.754C196.697 294.266 193.778 305.723 193.902 306.948C194.026 308.173 194.709 309.705 204.088 309.582C213.466 309.46 218.683 309.95 220.422 308.48C222.162 307.009 219.801 303.639 218.062 300.576C216.323 297.513 213.715 292.918 213.28 290.406C212.647 290.842 211.958 291.192 211.23 291.447C210.671 291.509 210.112 288.874 206.634 288.874C202.597 288.874 201.169 291.08 200.796 291.018C199.766 290.618 198.925 289.854 198.436 288.874Z" fill="#22272E"/>
<path d="M200.982 296.288C200.982 296.288 207.939 293.715 214.088 296.288" stroke="white" stroke-width="1.8" stroke-linecap="round" stroke-linejoin="round"/>
<path d="M200.485 299.779C200.485 299.779 208.746 297.206 215.578 299.779" stroke="white" stroke-width="1.8" stroke-linecap="round" stroke-linejoin="round"/>
<path d="M215.205 167.136C215.205 167.136 228.372 170.689 244.148 176.203C259.054 181.411 264.893 184.474 266.508 194.706C268.122 204.938 266.135 241.392 268.122 251.011C270.11 260.63 272.408 267.43 270.483 272.393C270.157 273.355 269.636 274.242 268.953 275C268.27 275.758 267.438 276.372 266.508 276.804C266.508 276.804 258.495 280.174 251.353 278.581C249.994 278.164 248.734 277.483 247.646 276.578C246.558 275.673 245.664 274.562 245.018 273.312C242.658 268.962 244.956 254.932 243.154 244.455C241.353 233.978 239.366 216.701 237.192 205.121C235.018 193.542 199.616 188.886 195.082 179.757C190.548 170.628 192.908 162.602 192.908 162.602C192.908 162.602 211.23 162.234 215.205 167.136Z" fill="#22272E"/>
<path d="M206.013 178.777C205.993 177.236 205.848 175.699 205.579 174.182" stroke="#63737A" stroke-width="1.8" stroke-linecap="round" stroke-linejoin="round"/>
<path d="M267.067 201.445C266.296 201.641 265.503 201.743 264.707 201.751C259.241 201.751 254.583 197.217 254.335 191.703C254.246 189.928 254.65 188.162 255.504 186.596C256.358 185.031 257.629 183.725 259.179 182.819C263.465 185.638 265.639 189.13 266.508 194.766C266.757 196.359 266.943 198.688 267.067 201.445Z" stroke="#63737A" stroke-width="1.8" stroke-linecap="round" stroke-linejoin="round"/>
<path d="M153.904 167.932C153.904 167.932 153.407 172.466 153.841 182.82C154.276 192.929 162.102 206.163 178.872 206.347C195.641 206.53 205.516 206.347 205.516 206.347C205.516 206.347 204.212 212.228 203.591 227.239C202.97 242.249 198.374 252.542 195.393 261.916C192.784 270.126 192.784 275.885 198.809 278.642C204.309 280.536 210.133 281.348 215.951 281.031C215.951 281.031 220.547 280.664 221.913 269.819C223.28 258.975 229.118 238.022 233.9 224.543C238.683 211.064 242.472 193.787 235.08 187.905C227.689 182.023 202.535 178.47 201.231 177.857C199.927 177.245 200.113 168.973 198.56 163.888C197.07 158.681 158.934 157.7 153.904 167.932Z" fill="#22272E"/>
<path d="M233.962 224.483C238.745 211.065 242.534 193.726 235.143 187.845C227.752 181.963 202.597 178.41 201.293 177.797" stroke="#63737A" stroke-width="1.8" stroke-linecap="round" stroke-linejoin="round"/>
<path d="M201.355 177.797C201.355 177.797 194.896 176.571 192.287 177" stroke="#63737A" stroke-width="1.8" stroke-linecap="round" stroke-linejoin="round"/>
<path d="M155.021 189.498C157.195 188.579 160.425 186.312 162.412 180.736" stroke="#63737A" stroke-width="1.8" stroke-linecap="round" stroke-linejoin="round"/>
<path d="M205.517 206.347C206.238 204.437 207.335 202.688 208.746 201.2" stroke="#63737A" stroke-width="1.8" stroke-linecap="round" stroke-linejoin="round"/>
<path d="M239.242 201.936C238.466 203.512 237.257 204.842 235.753 205.773C234.248 206.705 232.509 207.201 230.733 207.205C225.267 207.205 220.609 202.671 220.361 197.157C220.276 195.868 220.461 194.575 220.904 193.359C221.347 192.143 222.038 191.03 222.935 190.088C223.831 189.146 224.914 188.396 226.117 187.883C227.319 187.371 228.616 187.108 229.925 187.109C231.283 187.114 232.625 187.388 233.874 187.914C235.122 188.44 236.25 189.208 237.192 190.173C238.993 193.052 239.552 197.218 239.242 201.936Z" stroke="#63737A" stroke-width="1.8" stroke-linecap="round" stroke-linejoin="round"/>
<path d="M201.354 284.524C201.219 283.877 201.219 283.21 201.354 282.563" stroke="#63737A" stroke-width="1.8" stroke-linecap="round" stroke-linejoin="round"/>
<path d="M206.759 285.687C207.079 285.009 207.288 284.286 207.38 283.543" stroke="#63737A" stroke-width="1.8" stroke-linecap="round" stroke-linejoin="round"/>
<path d="M212.473 285.687C212.856 285.1 213.149 284.46 213.342 283.788" stroke="#63737A" stroke-width="1.8" stroke-linecap="round" stroke-linejoin="round"/>
<path d="M254.707 284.217C254.356 283.413 254.105 282.569 253.962 281.705" stroke="#63737A" stroke-width="1.8" stroke-linecap="round" stroke-linejoin="round"/>
<path d="M261.601 283.85C261.706 282.927 261.643 281.993 261.415 281.093" stroke="#63737A" stroke-width="1.8" stroke-linecap="round" stroke-linejoin="round"/>
<path d="M267.688 281.705C267.873 280.834 267.851 279.932 267.626 279.07" stroke="#63737A" stroke-width="1.8" stroke-linecap="round" stroke-linejoin="round"/>
<path d="M202.473 96.9842C202.473 96.9842 208.622 98.0257 218.436 100.293C224.506 101.64 230.642 102.683 236.82 103.417C236.82 103.417 246.944 98.9447 258.931 93.8595C265.81 90.8784 272.838 88.2406 279.986 85.9561C279.986 85.9561 283.091 86.2011 284.893 90.6736C285.586 92.3837 285.863 94.2304 285.7 96.0651C285.66 96.5356 285.51 96.9904 285.262 97.3943C285.014 97.7982 284.675 98.14 284.272 98.3933C281.539 100.17 274.023 105.133 262.223 113.159C247.192 123.39 240.919 124.126 233.466 123.819C225.206 123.452 204.709 120.143 204.709 120.143C204.709 120.143 199.182 119.102 197.256 109.36C195.455 99.6186 200.548 96.6166 202.473 96.9842Z" fill="#EFEFEF"/>
<path d="M236.696 123.82C236.696 123.82 234.273 123.146 235.888 120.451C237.503 117.755 243.838 115.61 247.751 117.203C251.043 118.551 249.055 120.818 249.055 120.818" stroke="#4EBC62" stroke-width="1.8" stroke-linecap="round" stroke-linejoin="round"/>
<path d="M276.135 87.2432C275.819 89.5692 276.208 91.9353 277.253 94.0438C279.302 98.0262 281.787 99.3128 282.532 99.5579" stroke="#4EBC62" stroke-width="1.8" stroke-linecap="round" stroke-linejoin="round"/>
<path d="M279.986 85.957C279.986 85.957 279.489 89.6943 281.042 92.8189C281.617 94.0879 282.44 95.2329 283.464 96.1886C283.768 96.4642 284.145 96.6505 284.551 96.7262C284.957 96.802 285.376 96.7644 285.762 96.6175C286.49 96.2813 287.264 96.0541 288.06 95.9435C289.426 95.821 293.153 96.6175 295.327 95.0858C297.501 93.5541 297.998 93.3703 298.308 93.3091C298.619 93.2478 301.91 93.2478 302.469 93.0027C303.587 92.5126 303.836 90.6746 303.277 89.9394C302.78 89.3267 299.55 89.2654 298.929 88.3464C298.308 87.4274 298.867 86.4471 302.345 85.5894C305.823 84.7316 311.972 82.8324 311.786 81.362C311.6 79.8915 308.308 80.9943 304.084 81.4232C299.861 81.8521 297.873 81.9746 296.134 81.3007C294.395 80.6267 292.035 80.688 289.364 81.9746C287.625 82.8324 285.762 83.5676 282.47 84.9767C281.674 85.3763 280.842 85.7044 279.986 85.957Z" fill="#EFEFEF"/>
<path d="M302.904 85.4664C303.256 86.4536 303.465 87.4849 303.525 88.5298C303.587 89.8776 301.6 93.5537 300.171 94.2276C298.743 94.9016 297.811 94.1663 297.19 93.1861C296.569 92.2058 294.954 86.3854 298.059 85.7115C301.165 85.0375 302.283 84.915 302.904 85.4664Z" fill="#EFEFEF"/>
<path d="M303.214 89.9387C302.717 89.3261 299.488 89.2648 298.867 88.3458C298.246 87.4268 298.805 86.4465 302.283 85.5888C305.761 84.731 311.91 82.8317 311.723 81.3613" stroke="#EFEFEF" stroke-width="1.8" stroke-linecap="round" stroke-linejoin="round"/>
<path d="M297.563 81.73C296.394 81.6689 295.223 81.772 294.084 82.0363" stroke="#EFEFEF" stroke-width="1.8" stroke-linecap="round" stroke-linejoin="round"/>
<path d="M295.265 95.086C297.438 93.4931 297.935 93.3705 298.246 93.3093C298.556 93.248 301.848 93.248 302.407 93.0029" stroke="#EFEFEF" stroke-width="1.8" stroke-linecap="round" stroke-linejoin="round"/>
<path d="M179.617 90.4898C179.617 90.4898 180.3 87.9778 184.958 88.2229C189.616 88.468 196.386 90.8574 196.821 94.2884C197.256 97.7193 181.791 99.6186 179.617 90.4898Z" fill="#22272E"/>
<path d="M212.846 118.244C212.225 98.8836 202.536 96.9843 202.536 96.9843C194.579 95.8269 186.54 95.3146 178.499 95.4526C165.332 95.6977 155.022 97.9033 149.68 105.378C144.96 111.995 134.65 141.342 137.321 149.49C139.557 156.352 146.14 158.006 157.941 155.985C157.196 160.273 156.326 163.643 156.326 163.643C161.295 167.197 172.288 170.689 188.747 170.689C203.405 170.689 210.796 165.971 210.796 165.971C210.237 161.621 213.405 137.604 212.846 118.244Z" fill="#EFEFEF"/>
<path d="M196.945 101.518C197.629 105.623 197.939 114.568 199.057 123.023C200.175 131.478 200.361 143.915 200.423 155.801C200.454 162.92 201.182 170.019 202.597 177C210.982 174.243 216.945 167.748 216.945 167.748C216.945 167.748 217.752 166.768 215.578 158.865C213.404 150.961 212.845 123.023 212.845 123.023C213.176 118.375 212.926 113.704 212.1 109.116C210.734 102.437 206.138 97.7198 202.597 96.617C200.672 96.0049 198.657 95.715 196.635 95.7593C196.635 95.7593 196.759 98.8839 196.945 101.518Z" fill="#4EBC62"/>
<path d="M180.61 83.5057C180.61 83.5057 180.238 90.4902 180.238 93.9211C180.238 99.9253 188.56 106.113 191.666 106.113C196.697 106.113 197.566 100.293 197.318 97.7197C197.069 95.1465 197.007 87.6719 197.069 87.4881C197.132 87.3043 183.716 80.1973 180.61 83.5057Z" fill="#EFEFEF"/>
<path d="M183.592 87.1826C184.523 94.7798 190.672 98.7621 197.318 98.5171C197.331 98.2703 197.31 98.023 197.256 97.7818C197.132 96.7403 197.07 94.9023 197.07 93.1255C192.287 95.5762 186.387 91.5939 183.592 87.1826Z" fill="#EFEFEF"/>
<path d="M188.001 104.765C187.567 112.056 190.299 130.191 190.299 150.777C190.299 171.362 187.256 179.817 187.256 179.817C161.605 182.819 148.562 172.159 148.562 172.159C148.562 172.159 149.556 170.015 151.73 164.072C153.903 158.129 153.903 150.838 153.903 150.838C153.903 150.838 156.885 123.942 155.829 117.937C154.773 111.933 150.86 103.969 150.86 103.969C150.86 103.969 153.966 99.496 162.288 97.2291C168.748 95.4524 175.766 95.2686 178.561 95.2686L178.499 95.5749C181.356 101.885 188.001 104.765 188.001 104.765Z" fill="#4EBC62"/>
<path d="M165.828 159.784C170.007 160.952 174.345 161.469 178.685 161.316C179.492 161.254 180.113 161.745 180.051 162.357V162.418C179.976 162.691 179.816 162.932 179.592 163.109C179.369 163.285 179.095 163.386 178.809 163.399C176.014 163.583 168.809 163.154 165.083 161.683C164.813 161.602 164.582 161.427 164.433 161.19C164.285 160.953 164.229 160.671 164.275 160.397C164.4 159.845 165.145 159.6 165.828 159.784Z" fill="#EAF9F3"/>
<path d="M206.51 159.6C207.752 159.294 210.547 158.681 213.591 157.64C214.025 157.517 214.522 157.885 214.647 158.497V158.559C214.719 158.748 214.721 158.956 214.653 159.147C214.585 159.337 214.45 159.498 214.274 159.6C212.845 160.152 209.243 161.438 206.945 161.561C206.727 161.535 206.521 161.445 206.355 161.303C206.189 161.162 206.07 160.974 206.013 160.764C205.889 160.213 206.075 159.723 206.51 159.6Z" fill="#EAF9F3"/>
<path d="M207.131 129.273H206.821C202.1 131.785 199.368 131.662 199.057 129.334C199.554 129.028 199.989 128.721 200.424 128.415C201.459 127.756 202.623 127.318 203.84 127.128C204.744 126.979 205.657 126.876 206.572 126.822C206.572 126.822 207.939 126.516 208.187 127.006C208.436 127.373 208.374 128.292 207.131 129.273Z" fill="#EFEFEF"/>
<path d="M238.434 150.777L203.156 150.716C202.895 150.717 202.637 150.664 202.397 150.56C202.158 150.457 201.944 150.305 201.768 150.114C201.593 149.923 201.459 149.699 201.378 149.454C201.296 149.209 201.267 148.95 201.293 148.694L203.964 121.736C204.021 121.154 204.306 120.617 204.758 120.24C205.211 119.862 205.795 119.673 206.386 119.715L241.788 122.043C242.182 122.08 242.545 122.268 242.8 122.565C243.055 122.863 243.182 123.247 243.155 123.636L240.298 149.123C240.251 149.578 240.035 149.999 239.69 150.305C239.346 150.611 238.898 150.779 238.434 150.777Z" fill="#22272E"/>
<path d="M226.386 125.045C226.404 124.955 226.402 124.862 226.379 124.773C226.357 124.684 226.314 124.601 226.254 124.53C226.194 124.459 226.12 124.403 226.035 124.365C225.95 124.327 225.858 124.308 225.764 124.31C225.557 124.319 225.359 124.397 225.202 124.53C225.044 124.663 224.936 124.844 224.895 125.045C224.876 125.135 224.878 125.228 224.901 125.317C224.924 125.406 224.967 125.489 225.026 125.56C225.086 125.63 225.161 125.687 225.246 125.725C225.33 125.763 225.423 125.782 225.516 125.78C225.72 125.761 225.913 125.68 226.069 125.548C226.225 125.417 226.335 125.241 226.386 125.045Z" fill="#63737A"/>
<path d="M194.523 144.099C194.458 144.364 194.328 144.609 194.144 144.812C193.96 145.016 193.727 145.171 193.467 145.263C184.323 149.114 174.871 152.209 165.207 154.515C162.599 155.127 160.114 155.679 157.879 156.046C146.016 158.007 139.494 156.414 137.258 149.552C134.587 141.403 144.898 112.118 149.618 105.44C149.997 104.903 150.412 104.391 150.86 103.908C157.382 98.884 164.152 103.785 165.642 111.995C166.388 116.345 164.524 121.124 162.971 126.577C161.854 130.498 158.996 136.808 158.996 136.808L191.542 133.5C191.833 133.455 192.13 133.489 192.403 133.596C192.676 133.704 192.915 133.882 193.095 134.113C196.076 137.36 195.082 142.2 194.523 144.099Z" fill="#EFEFEF"/>
<path d="M158.997 136.747C158.997 136.747 152.662 137.482 150.239 139.075" stroke="#4EBC62" stroke-width="1.8" stroke-linecap="round" stroke-linejoin="round"/>
<path d="M187.132 133.867C187.132 133.867 185.393 135.828 186.077 139.933C186.822 144.405 188.809 145.631 190.176 146.55" stroke="#4EBC62" stroke-width="1.8" stroke-linecap="round" stroke-linejoin="round"/>
<path d="M137.258 150.104C137.258 150.104 136.575 146.428 141.979 146.367C147.382 146.305 153.469 153.657 149.68 156.843" stroke="#4EBC62" stroke-width="1.8" stroke-linecap="round" stroke-linejoin="round"/>
<path d="M219.305 138.462C218.932 139.626 216.075 138.523 213.901 137.911C211.106 137.114 209.243 136.502 209.056 136.44C210.865 137.401 212.589 138.507 214.212 139.749C216.448 141.403 218.124 143.18 217.379 144.037C216.634 144.895 212.162 142.322 212.162 142.322C212.162 142.322 213.777 143.425 214.149 144.711C214.522 145.998 212.348 145.569 208.249 143.118C208.249 143.118 206.696 143.18 203.777 144.466C200.858 145.753 196.51 145.14 195.144 144.711C194.599 144.553 194.035 144.47 193.467 144.466C193.154 144.463 192.846 144.39 192.567 144.252C192.287 144.114 192.042 143.915 191.852 143.67C190.695 142.288 189.962 140.609 189.74 138.83C189.492 136.563 190.051 135.276 190.486 134.664C190.686 134.345 190.994 134.106 191.355 133.99C192.103 133.739 192.83 133.432 193.529 133.071C194.088 132.764 196.138 131.294 198.187 129.946C198.487 129.756 198.778 129.552 199.057 129.333C201.644 129.464 204.236 129.444 206.821 129.272H207.131C209.802 129.088 216.944 129.701 217.69 130.497C218.435 131.294 217.379 132.335 214.025 132.274C212.218 132.27 210.412 132.393 208.622 132.642C210.473 133.1 212.281 133.715 214.025 134.48C216.634 135.644 219.739 137.298 219.305 138.462Z" fill="#EFEFEF"/>
<path d="M209.119 136.44C209.119 136.44 208.125 136.073 207.38 135.889C206.932 135.778 206.474 135.717 206.013 135.705" stroke="#EFEFEF" stroke-width="1.8" stroke-linecap="round" stroke-linejoin="round"/>
<path d="M212.162 142.322C212.162 142.322 210.112 140.239 207.752 139.749C206.696 139.565 206.013 139.504 206.013 139.504" stroke="#EFEFEF" stroke-width="1.8" stroke-linecap="round" stroke-linejoin="round"/>
<path d="M208.684 132.642C207.787 132.608 206.889 132.69 206.013 132.888" stroke="#EFEFEF" stroke-width="1.8" stroke-linecap="round" stroke-linejoin="round"/>
<path d="M203.281 129.395C202.781 129.402 202.282 129.361 201.79 129.272" stroke="#EFEFEF" stroke-width="1.8" stroke-linecap="round" stroke-linejoin="round"/>
<path d="M196.759 98.4542C196.696 97.6385 196.696 96.8193 196.759 96.0035C196.838 95.4353 196.859 94.8605 196.821 94.2881V92.8789C196.821 92.8789 197.193 93.6754 197.939 94.962C198.684 96.2486 197.566 101.885 197.007 102.559L196.759 98.4542Z" fill="#22272E"/>
<path d="M203.529 71.1916C203.289 74.9251 203.289 78.6699 203.529 82.4035C203.692 85.2062 202.909 87.9832 201.302 90.3001C199.695 92.617 197.355 94.3431 194.647 95.2083C190.486 96.4949 182.66 93.309 180.797 84.1802C178.934 75.0514 174.897 64.7585 185.704 61.0212C196.511 57.2839 203.653 62.4916 203.529 71.1916Z" fill="#EFEFEF"/>
<path d="M180.176 77.6239C180.176 77.6239 181.48 76.8275 181.915 74.1317C181.94 73.8311 182.038 73.5409 182.2 73.2851C182.362 73.0293 182.583 72.8155 182.846 72.6613C183.468 72.3943 184.014 71.981 184.436 71.4576C184.858 70.9342 185.144 70.3168 185.268 69.6592C185.393 68.4951 185.89 67.6374 187.132 68.3113C196.883 73.8866 203.342 68.8015 203.342 68.8015L203.404 72.2937C207.193 71.2522 209.491 66.3508 208.746 62.736C207.814 58.2022 206.075 59.06 203.901 55.629C201.727 52.198 197.752 49.8086 192.66 51.5854C187.567 53.3621 185.703 54.1586 181.728 54.0973C177.753 54.0361 173.965 55.6903 173.654 59.3663C173.343 63.0423 169.927 64.1452 169.306 67.5761C168.685 71.0071 170.052 72.7226 171.356 74.0704C172.66 75.4183 170.176 79.2169 173.468 82.4028C176.76 85.5887 178.933 86.569 180.3 88.652C180.486 88.652 180.983 83.0155 180.176 77.6239Z" fill="#22272E"/>
<path d="M181.293 78.6659C181.293 78.6659 178.933 74.7448 175.766 76.5215C172.598 78.2983 175.952 84.425 180.859 84.1187" fill="#EFEFEF"/>
<path d="M198.25 75.6641C198.471 76.2787 198.785 76.857 199.181 77.3795C199.352 77.5972 199.539 77.802 199.74 77.9922C200.069 78.2172 200.345 78.5099 200.548 78.85C200.741 79.2066 200.847 79.6027 200.857 80.0068C200.868 80.4109 200.784 80.8119 200.61 81.1781C200.477 81.5271 200.264 81.8414 199.989 82.0971C199.743 82.3711 199.418 82.5637 199.057 82.6485C199.442 82.1506 199.679 81.5565 199.74 80.933C199.814 80.4152 199.749 79.8875 199.554 79.4014C199.43 79.1563 199.306 79.095 198.995 78.7887C198.731 78.5006 198.521 78.1688 198.374 77.8084C198.117 77.1218 198.074 76.3751 198.25 75.6641Z" fill="#22272E"/>
<path d="M194.896 87.7344C194.074 87.8023 193.25 87.6434 192.515 87.2755C191.78 86.9077 191.164 86.3453 190.734 85.6514" stroke="#22272E" stroke-width="1.8" stroke-linecap="round" stroke-linejoin="round"/>
<path d="M191.356 78.2365C191.241 78.239 191.126 78.2186 191.02 78.1763C190.913 78.1341 190.816 78.071 190.735 77.9909C190.654 77.9107 190.59 77.8152 190.547 77.71C190.504 77.6048 190.484 77.4921 190.486 77.3788V76.521C190.484 76.4077 190.504 76.295 190.547 76.1898C190.59 76.0846 190.654 75.9891 190.735 75.9089C190.816 75.8288 190.913 75.7657 191.02 75.7235C191.126 75.6813 191.241 75.6608 191.356 75.6633C191.47 75.6608 191.585 75.6813 191.691 75.7235C191.798 75.7657 191.895 75.8288 191.976 75.9089C192.057 75.9891 192.121 76.0846 192.164 76.1898C192.207 76.295 192.228 76.4077 192.225 76.521V77.3788C192.22 77.6048 192.127 77.8202 191.965 77.9801C191.803 78.1399 191.585 78.2318 191.356 78.2365Z" fill="#22272E"/>
<path d="M200.983 78.2365C200.868 78.239 200.753 78.2186 200.647 78.1763C200.54 78.1341 200.443 78.071 200.362 77.9909C200.281 77.9107 200.217 77.8152 200.174 77.71C200.131 77.6048 200.11 77.4921 200.113 77.3788V76.521C200.11 76.4077 200.131 76.295 200.174 76.1898C200.217 76.0846 200.281 75.9891 200.362 75.9089C200.443 75.8288 200.54 75.7657 200.647 75.7235C200.753 75.6813 200.868 75.6608 200.983 75.6633C201.097 75.6608 201.212 75.6813 201.318 75.7235C201.425 75.7657 201.522 75.8288 201.603 75.9089C201.684 75.9891 201.748 76.0846 201.791 76.1898C201.834 76.295 201.855 76.4077 201.852 76.521V77.3788C201.847 77.6048 201.754 77.8202 201.592 77.9801C201.43 78.1399 201.212 78.2318 200.983 78.2365Z" fill="#22272E"/>
<path d="M192.597 73.7647C191.976 74.0098 191.541 73.2746 190.61 73.5196C189.181 73.9485 188.498 74.4387 188.25 73.826C188.063 73.3971 188.933 72.2943 190.299 71.9267C192.287 71.4978 193.715 73.3358 192.597 73.7647Z" fill="#22272E"/>
<path d="M199.803 73.7652C200.3 73.949 200.672 73.2751 201.355 73.4589C202.287 73.7652 202.784 74.1328 202.908 73.6427C203.032 73.2751 202.536 72.2948 201.604 71.9885C200.113 71.4983 198.809 73.3976 199.803 73.7652Z" fill="#22272E"/>
<path d="M176.263 79.095C176.298 78.9644 176.36 78.8426 176.446 78.7371C176.531 78.6316 176.638 78.5448 176.76 78.4823C176.889 78.3794 177.039 78.3044 177.199 78.2622C177.359 78.22 177.527 78.2115 177.691 78.2372C178.041 78.3075 178.351 78.5042 178.561 78.7886C178.729 79.0198 178.874 79.266 178.996 79.5238C179.162 79.9608 179.287 80.412 179.368 80.8717C179.43 81.0555 179.43 81.178 179.554 81.3006C179.733 81.4507 179.946 81.5558 180.176 81.6069C179.937 81.7604 179.651 81.8255 179.368 81.7907C179.043 81.703 178.758 81.5085 178.561 81.2393C178.302 80.8366 178.094 80.4046 177.94 79.9527C177.868 79.764 177.786 79.5798 177.691 79.4013C177.645 79.2751 177.557 79.1674 177.443 79.095C177.256 78.8499 176.76 78.9112 176.263 79.095Z" fill="#22272E"/>
<path d="M181.853 116.897C182.102 119.226 180.549 121.738 178.313 121.921C177.225 121.961 176.162 121.592 175.341 120.887C174.519 120.182 174 119.195 173.889 118.127C173.779 117.058 174.084 115.988 174.745 115.134C175.405 114.28 176.37 113.705 177.443 113.528C179.741 113.283 181.667 114.569 181.853 116.897Z" fill="#EFEFEF"/>
<path d="M188.001 104.766C188.001 104.766 181.356 101.887 178.437 95.5151L179.617 90.4912C180.984 93.0686 183.104 95.1817 185.703 96.5567C186.406 96.9126 187.001 97.446 187.426 98.1026C187.852 98.7592 188.093 99.5153 188.126 100.294C188.174 101.786 188.133 103.279 188.001 104.766Z" fill="#22272E"/>
<path d="M106.576 140.608C106.578 141.051 106.491 141.49 106.319 141.899C106.148 142.309 105.897 142.681 105.579 142.994C105.262 143.308 104.885 143.556 104.469 143.724C104.054 143.893 103.609 143.979 103.16 143.978C102.257 143.97 101.393 143.612 100.754 142.982C100.115 142.352 99.7522 141.499 99.7441 140.608C99.7441 139.714 100.104 138.857 100.745 138.225C101.385 137.593 102.254 137.238 103.16 137.238C104.066 137.238 104.935 137.593 105.576 138.225C106.216 138.857 106.576 139.714 106.576 140.608Z" fill="#22272E"/>
<path d="M106.576 152.433H99.7442C99.3767 152.434 99.0125 152.364 98.6727 152.226C98.3328 152.088 98.024 151.885 97.7642 151.629C97.5043 151.372 97.2985 151.068 97.1587 150.733C97.0188 150.397 96.9476 150.038 96.9492 149.676C96.9492 148.051 97.6036 146.492 98.7684 145.343C99.9332 144.194 101.513 143.549 103.16 143.549C104.807 143.549 106.387 144.194 107.552 145.343C108.717 146.492 109.371 148.051 109.371 149.676C109.373 150.038 109.302 150.397 109.162 150.733C109.022 151.068 108.816 151.372 108.556 151.629C108.296 151.885 107.988 152.088 107.648 152.226C107.308 152.364 106.944 152.434 106.576 152.433Z" fill="#22272E"/>
<path d="M85.7695 144.835C85.7651 148.446 86.9159 151.966 89.058 154.895C91.2002 157.823 94.2244 160.009 97.7 161.143C101.176 162.277 104.925 162.3 108.415 161.209C111.904 160.118 114.956 157.968 117.135 155.067" stroke="#4EBC62" stroke-width="1.8" stroke-linecap="round" stroke-linejoin="round"/>
<path d="M118.998 157.087L119.122 151.573L114.216 154.208L118.998 157.087Z" fill="#4EBC62"/>
<path d="M120.489 144.835C120.486 141.173 119.295 137.607 117.09 134.661C114.885 131.715 111.782 129.542 108.235 128.46C104.689 127.378 100.884 127.444 97.3781 128.649C93.8722 129.853 90.849 132.133 88.751 135.154" stroke="#4EBC62" stroke-width="1.8" stroke-linecap="round" stroke-linejoin="round"/>
<path d="M86.8252 133.193L86.9494 138.646L91.7318 135.828L86.8252 133.193Z" fill="#4EBC62"/>
</svg>
