<svg width="16" height="16" viewBox="0 0 16 16" fill="none" xmlns="http://www.w3.org/2000/svg">
<g id="icon/lightbulb">
<path id="Vector" d="M6 12H10" stroke="#020617" stroke-width="1.3" stroke-linecap="round" stroke-linejoin="round"/>
<path id="Vector_2" d="M6.66699 14.667H9.33366" stroke="#020617" stroke-width="1.3" stroke-linecap="round" stroke-linejoin="round"/>
<path id="Vector_3" d="M10.06 9.33301C10.18 8.67967 10.4933 8.17301 11 7.66634C11.3219 7.37001 11.5774 7.00889 11.7498 6.60673C11.9221 6.20457 12.0074 5.77048 12 5.33301C12 4.27214 11.5786 3.25473 10.8284 2.50458C10.0783 1.75444 9.06087 1.33301 8 1.33301C6.93913 1.33301 5.92172 1.75444 5.17157 2.50458C4.42143 3.25473 4 4.27214 4 5.33301C4 5.99967 4.15333 6.81967 5 7.66634C5.4827 8.10772 5.812 8.69158 5.94 9.33301" stroke="black" stroke-width="1.33" stroke-linecap="round" stroke-linejoin="round"/>
</g>
</svg>
