<svg width="35" height="36" viewBox="0 0 35 36" fill="none" xmlns="http://www.w3.org/2000/svg">
<g id="Group">
<path id="Vector" d="M4.7 34H30.3C31.1487 34 31.9626 33.6629 32.5627 33.0627C33.1629 32.4626 33.5 31.6487 33.5 30.8V5.2C33.5 4.35131 33.1629 3.53737 32.5627 2.93726C31.9626 2.33714 31.1487 2 30.3 2H11.1C10.2513 2 9.43737 2.33714 8.83726 2.93726C8.23714 3.53737 7.9 4.35131 7.9 5.2V30.8C7.9 31.6487 7.56286 32.4626 6.96274 33.0627C6.36263 33.6629 5.54869 34 4.7 34ZM4.7 34C3.85131 34 3.03737 33.6629 2.43726 33.0627C1.83714 32.4626 1.5 31.6487 1.5 30.8V16.4C1.5 14.64 2.94 13.2 4.7 13.2H7.9M27.1 21.2H14.3M22.3 27.6H14.3" stroke="#FFFFFF" stroke-width="3" stroke-linecap="round" stroke-linejoin="round"/>
<path id="Vector_2" d="M14.2998 8.40039H27.0998V14.8004H14.2998V8.40039Z" stroke="#FFFFFF" stroke-width="3" stroke-linecap="round" stroke-linejoin="round"/>
</g>
</svg>
