<svg width="34" height="34" viewBox="0 0 34 34" fill="none" xmlns="http://www.w3.org/2000/svg">
<g id="Group">
<path id="Vector" d="M4.2 33H29.8C30.6487 33 31.4626 32.6629 32.0627 32.0627C32.6629 31.4626 33 30.6487 33 29.8V4.2C33 3.35131 32.6629 2.53737 32.0627 1.93726C31.4626 1.33714 30.6487 1 29.8 1H10.6C9.75131 1 8.93737 1.33714 8.33726 1.93726C7.73714 2.53737 7.4 3.35131 7.4 4.2V29.8C7.4 30.6487 7.06286 31.4626 6.46274 32.0627C5.86263 32.6629 5.04869 33 4.2 33ZM4.2 33C3.35131 33 2.53737 32.6629 1.93726 32.0627C1.33714 31.4626 1 30.6487 1 29.8V15.4C1 13.64 2.44 12.2 4.2 12.2H7.4M26.6 20.2H13.8M21.8 26.6H13.8" stroke="black" stroke-width="2" stroke-linecap="round" stroke-linejoin="round"/>
<path id="Vector_2" d="M13.7998 7.3999H26.5998V13.7999H13.7998V7.3999Z" stroke="black" stroke-width="2" stroke-linecap="round" stroke-linejoin="round"/>
</g>
</svg>
