<svg width="17" height="16" viewBox="0 0 17 16" fill="none" xmlns="http://www.w3.org/2000/svg">
<g id="icon/sparkles">
<path id="Vector" d="M3.83333 2V4.66667M13.1667 11.3333V14M2.5 3.33333H5.16667M11.8333 12.6667H14.5M8.5 2L7.22533 5.87533C7.1601 6.07367 7.0492 6.25392 6.90156 6.40156C6.75392 6.5492 6.57367 6.6601 6.37533 6.72533L2.5 8L6.37533 9.27467C6.57367 9.3399 6.75392 9.4508 6.90156 9.59844C7.0492 9.74608 7.1601 9.92633 7.22533 10.1247L8.5 14L9.77467 10.1247C9.8399 9.92633 9.9508 9.74608 10.0984 9.59844C10.2461 9.4508 10.4263 9.3399 10.6247 9.27467L14.5 8L10.6247 6.72533C10.4263 6.6601 10.2461 6.5492 10.0984 6.40156C9.9508 6.25392 9.8399 6.07367 9.77467 5.87533L8.5 2Z" stroke="white" stroke-width="1.33" stroke-linecap="round" stroke-linejoin="round"/>
</g>
</svg>
