<svg width="53" height="53" viewBox="0 0 53 53" fill="none" xmlns="http://www.w3.org/2000/svg">
<g id="Group 201">
<g id="Ellipse 411">
<mask id="path-1-inside-1_761_1381" fill="white">
<path d="M45.2383 45.2383C41.5322 48.9444 36.8104 51.4683 31.6699 52.4908C26.5294 53.5133 21.2011 52.9885 16.3589 50.9828C11.5166 48.9771 7.37791 45.5805 4.46606 41.2226C1.5542 36.8647 3.228e-07 31.7412 0 26.5C-3.228e-07 21.2588 1.5542 16.1353 4.46605 11.7774C7.37791 7.41949 11.5166 4.02292 16.3589 2.01719C21.2011 0.0114707 26.5294 -0.513318 31.6699 0.509189C36.8104 1.5317 41.5322 4.05558 45.2383 7.76167L36.8189 16.1811C34.778 14.1402 32.1778 12.7503 29.347 12.1873C26.5162 11.6242 23.582 11.9132 20.9154 13.0177C18.2489 14.1222 15.9698 15.9927 14.3662 18.3925C12.7627 20.7923 11.9069 23.6137 11.9069 26.5C11.9069 29.3863 12.7627 32.2077 14.3662 34.6075C15.9698 37.0074 18.2489 38.8778 20.9154 39.9823C23.582 41.0868 26.5162 41.3758 29.347 40.8127C32.1778 40.2497 34.778 38.8598 36.8189 36.8189L45.2383 45.2383Z"/>
</mask>
<path d="M45.2383 45.2383C41.5322 48.9444 36.8104 51.4683 31.6699 52.4908C26.5294 53.5133 21.2011 52.9885 16.3589 50.9828C11.5166 48.9771 7.37791 45.5805 4.46606 41.2226C1.5542 36.8647 3.228e-07 31.7412 0 26.5C-3.228e-07 21.2588 1.5542 16.1353 4.46605 11.7774C7.37791 7.41949 11.5166 4.02292 16.3589 2.01719C21.2011 0.0114707 26.5294 -0.513318 31.6699 0.509189C36.8104 1.5317 41.5322 4.05558 45.2383 7.76167L36.8189 16.1811C34.778 14.1402 32.1778 12.7503 29.347 12.1873C26.5162 11.6242 23.582 11.9132 20.9154 13.0177C18.2489 14.1222 15.9698 15.9927 14.3662 18.3925C12.7627 20.7923 11.9069 23.6137 11.9069 26.5C11.9069 29.3863 12.7627 32.2077 14.3662 34.6075C15.9698 37.0074 18.2489 38.8778 20.9154 39.9823C23.582 41.0868 26.5162 41.3758 29.347 40.8127C32.1778 40.2497 34.778 38.8598 36.8189 36.8189L45.2383 45.2383Z" stroke="#131313" stroke-width="40" mask="url(#path-1-inside-1_761_1381)"/>
</g>
<g id="Ellipse 412">
<mask id="path-2-inside-2_761_1381" fill="white">
<path d="M26.316 39.999C24.5433 39.9748 22.7927 39.6018 21.1642 38.9011C19.5358 38.2004 18.0612 37.1858 16.8248 35.9152C15.5884 34.6446 14.6144 33.143 13.9584 31.496C13.3023 29.849 12.9771 28.0889 13.0013 26.3162L18.5761 26.3922C18.562 27.4328 18.7529 28.466 19.138 29.4328C19.5231 30.3996 20.0948 31.2811 20.8206 32.0269C21.5464 32.7727 22.4119 33.3683 23.3679 33.7796C24.3238 34.1909 25.3514 34.4099 26.392 34.4241L26.316 39.999Z"/>
</mask>
<path d="M26.316 39.999C24.5433 39.9748 22.7927 39.6018 21.1642 38.9011C19.5358 38.2004 18.0612 37.1858 16.8248 35.9152C15.5884 34.6446 14.6144 33.143 13.9584 31.496C13.3023 29.849 12.9771 28.0889 13.0013 26.3162L18.5761 26.3922C18.562 27.4328 18.7529 28.466 19.138 29.4328C19.5231 30.3996 20.0948 31.2811 20.8206 32.0269C21.5464 32.7727 22.4119 33.3683 23.3679 33.7796C24.3238 34.1909 25.3514 34.4099 26.392 34.4241L26.316 39.999Z" stroke="#EFEFEF" stroke-width="32" mask="url(#path-2-inside-2_761_1381)"/>
</g>
<path id="Polygon 1" d="M21.8175 31.7742L31.4203 28.4298L35.0252 18.9217L25.4225 22.2662L21.8175 31.7742Z" fill="url(#paint0_linear_761_1381)"/>
</g>
<defs>
<linearGradient id="paint0_linear_761_1381" x1="21.8175" y1="31.7742" x2="35.0252" y2="18.9217" gradientUnits="userSpaceOnUse">
<stop stop-color="#4EBC62"/>
<stop offset="1" stop-color="#4EBC62"/>
</linearGradient>
</defs>
</svg>
