<svg width="16" height="16" viewBox="0 0 16 16" fill="none" xmlns="http://www.w3.org/2000/svg">
<g id="icon/file-search">
<path id="Vector" d="M2.6665 14.6673H11.9998C12.3535 14.6673 12.6926 14.5268 12.9426 14.2768C13.1927 14.0267 13.3332 13.6876 13.3332 13.334V5.00065L9.6665 1.33398H3.99984C3.64622 1.33398 3.30708 1.47446 3.05703 1.72451C2.80698 1.97456 2.6665 2.3137 2.6665 2.66732V4.66732" stroke="#020617" stroke-linecap="round" stroke-linejoin="round"/>
<path id="Vector_2" d="M9.3335 1.33398V5.33398H13.3335" stroke="#020617" stroke-linecap="round" stroke-linejoin="round"/>
<path id="Vector_3" d="M3.3335 11.334C3.59614 11.334 3.85621 11.2823 4.09886 11.1817C4.34151 11.0812 4.56199 10.9339 4.74771 10.7482C4.93343 10.5625 5.08075 10.342 5.18126 10.0994C5.28176 9.8567 5.3335 9.59663 5.3335 9.33398C5.3335 9.07134 5.28176 8.81127 5.18126 8.56862C5.08075 8.32597 4.93343 8.10549 4.74771 7.91977C4.56199 7.73405 4.34151 7.58673 4.09886 7.48623C3.85621 7.38572 3.59614 7.33398 3.3335 7.33398C2.80306 7.33398 2.29436 7.5447 1.91928 7.91977C1.54421 8.29484 1.3335 8.80355 1.3335 9.33398C1.3335 9.86442 1.54421 10.3731 1.91928 10.7482C2.29436 11.1233 2.80306 11.334 3.3335 11.334Z" stroke="black" stroke-linecap="round" stroke-linejoin="round"/>
<path id="Vector_4" d="M6 12L5 11" stroke="black" stroke-linecap="round" stroke-linejoin="round"/>
</g>
</svg>
